<?xml version="1.0" encoding="utf-8"?>
<!-- Generator: Adobe Illustrator 27.0.0, SVG Export Plug-In . SVG Version: 6.00 Build 0)  -->
<svg version="1.1" id="Layer_1" xmlns="http://www.w3.org/2000/svg" xmlns:xlink="http://www.w3.org/1999/xlink" x="0px" y="0px"
	 viewBox="0 0 512 512" style="enable-background:new 0 0 512 512;" xml:space="preserve">
<style type="text/css">
	.st0{fill:#635959;}
</style>
<path class="st0" d="M104,160c-30.9,0-56-25.1-56-56s25.1-56,56-56s56,25.1,56,56C160,134.9,134.9,160,104,160z"/>
<path class="st0" d="M256,160c-30.9,0-56-25.1-56-56s25.1-56,56-56s56,25.1,56,56C312,134.9,286.9,160,256,160z"/>
<path class="st0" d="M408,160c-30.9,0-56-25.1-56-56s25.1-56,56-56s56,25.1,56,56C464,134.9,438.9,160,408,160z"/>
<path class="st0" d="M104,312c-30.9,0-56-25.1-56-56s25.1-56,56-56s56,25.1,56,56C160,286.9,134.9,312,104,312z"/>
<path class="st0" d="M256,312c-30.9,0-56-25.1-56-56s25.1-56,56-56s56,25.1,56,56C312,286.9,286.9,312,256,312z"/>
<path class="st0" d="M408,312c-30.9,0-56-25.1-56-56s25.1-56,56-56s56,25.1,56,56C464,286.9,438.9,312,408,312z"/>
<path class="st0" d="M104,464c-30.9,0-56-25.1-56-56s25.1-56,56-56s56,25.1,56,56C160,438.9,134.9,464,104,464z"/>
<path class="st0" d="M256,464c-30.9,0-56-25.1-56-56s25.1-56,56-56s56,25.1,56,56C312,438.9,286.9,464,256,464z"/>
<path class="st0" d="M408,464c-30.9,0-56-25.1-56-56s25.1-56,56-56s56,25.1,56,56C464,438.9,438.9,464,408,464z"/>
</svg>
