<svg width="60" height="60" viewBox="0 0 60 60" fill="none" xmlns="http://www.w3.org/2000/svg">
<path d="M30.1037 0.850586C13.956 0.850586 0.850586 13.956 0.850586 30.1037C0.850586 46.2514 13.956 59.3568 30.1037 59.3568C46.2514 59.3568 59.3568 46.2514 59.3568 30.1037C59.3568 13.956 46.2514 0.850586 30.1037 0.850586ZM30.1037 9.62652C34.9597 9.62652 38.8796 13.5464 38.8796 18.4025C38.8796 23.2585 34.9597 27.1784 30.1037 27.1784C25.2477 27.1784 21.3278 23.2585 21.3278 18.4025C21.3278 13.5464 25.2477 9.62652 30.1037 9.62652ZM30.1037 51.166C22.7904 51.166 16.3255 47.4216 12.5518 41.7464C12.6396 35.9251 24.2531 32.7365 30.1037 32.7365C35.9251 32.7365 47.5678 35.9251 47.6556 41.7464C43.8819 47.4216 37.417 51.166 30.1037 51.166Z" fill="#D9D9D9"/>
</svg>
