<?xml version="1.0" encoding="utf-8"?>
<!-- Generator: Adobe Illustrator 27.0.0, SVG Export Plug-In . SVG Version: 6.00 Build 0)  -->
<svg version="1.1" id="Layer_1" xmlns="http://www.w3.org/2000/svg" xmlns:xlink="http://www.w3.org/1999/xlink" x="0px" y="0px"
	 viewBox="0 0 512 512" style="enable-background:new 0 0 512 512;" xml:space="preserve">
<style type="text/css">
	.st0{fill:none;stroke:#635959;stroke-width:32;stroke-linecap:round;stroke-linejoin:round;}
</style>
<path class="st0" d="M384,240H96V136c0.1-22.1,17.9-39.9,40-40h240c22.1,0.1,39.9,17.9,40,40v104H384z"/>
<path class="st0" d="M48,416V304c0.1-35.3,28.7-63.9,64-64h288c35.3,0.1,63.9,28.7,64,64v112"/>
<path class="st0" d="M48,416v-8c0-13.2,10.8-24,24-24h368c13.2,0,24,10.8,24,24v8"/>
<path class="st0" d="M112,240v-16c0-17.7,14.3-32,32-32h80c17.7,0,32,14.3,32,32v16"/>
<path class="st0" d="M256,240v-16c0-17.7,14.3-32,32-32h80c17.7,0,32,14.3,32,32v16"/>
</svg>
