<?xml version="1.0" encoding="utf-8"?>
<!-- Generator: Adobe Illustrator 27.0.0, SVG Export Plug-In . SVG Version: 6.00 Build 0)  -->
<svg version="1.1" id="Layer_1" xmlns="http://www.w3.org/2000/svg" xmlns:xlink="http://www.w3.org/1999/xlink" x="0px" y="0px"
	 viewBox="0 0 512 512" style="enable-background:new 0 0 512 512;" xml:space="preserve">
<style type="text/css">
	.st0{fill:none;stroke:#635959;stroke-width:32;stroke-linecap:round;stroke-linejoin:round;}
</style>
<path class="st0" d="M256,160c16-63.2,76.4-95.4,208-96c8.8,0,16,7.1,16,15.9c0,0,0,0.1,0,0.1v288c0,8.8-7.2,16-16,16
	c-128,0-177.5,25.8-208,64c-30.4-38-80-64-208-64c-9.9,0-16-8-16-17.9V80c0-8.8,7.1-16,15.9-16c0,0,0.1,0,0.1,0
	C179.6,64.6,240,96.8,256,160z"/>
<line class="st0" x1="256" y1="160" x2="256" y2="448"/>
</svg>
