<?xml version="1.0" encoding="utf-8"?>
<!-- Generator: Adobe Illustrator 27.0.0, SVG Export Plug-In . SVG Version: 6.00 Build 0)  -->
<svg version="1.1" id="Layer_1" xmlns="http://www.w3.org/2000/svg" xmlns:xlink="http://www.w3.org/1999/xlink" x="0px" y="0px"
	 viewBox="0 0 512 512" style="enable-background:new 0 0 512 512;" xml:space="preserve">
<style type="text/css">
	.st0{fill:none;stroke:#635959;stroke-width:32;stroke-linejoin:round;}
	.st1{fill:#635959;stroke:#635959;stroke-width:32;stroke-linecap:round;stroke-linejoin:round;}
	.st2{fill:none;stroke:#635959;stroke-width:32;stroke-linecap:round;stroke-linejoin:round;}
	.st3{fill:#635959;}
</style>
<path class="st0" d="M64,64h384c17.7,0,32,14.3,32,32v256c0,17.7-14.3,32-32,32H64c-17.7,0-32-14.3-32-32V96C32,78.3,46.3,64,64,64z
	"/>
<polygon class="st1" points="304,448 296,384 216,384 208,448 "/>
<line class="st2" x1="368" y1="448" x2="144" y2="448"/>
<path class="st3" d="M32,304v48c0,17.7,14.3,32,32,32h384c17.7,0,32-14.3,32-32v-48H32z M256,368c-8.8,0-16-7.2-16-16s7.2-16,16-16
	c8.8,0,16,7.2,16,16S264.8,368,256,368z"/>
</svg>
