<?xml version="1.0" encoding="utf-8"?>
<!-- Generator: Adobe Illustrator 27.0.0, SVG Export Plug-In . SVG Version: 6.00 Build 0)  -->
<svg version="1.1" id="Layer_1" xmlns="http://www.w3.org/2000/svg" xmlns:xlink="http://www.w3.org/1999/xlink" x="0px" y="0px"
	 viewBox="0 0 512 512" style="enable-background:new 0 0 512 512;" xml:space="preserve">
<style type="text/css">
	.st0{fill:none;stroke:#635959;stroke-width:32;stroke-linecap:round;stroke-miterlimit:10;}
</style>
<path class="st0" d="M215.1,156.9c-4.9-24-10.8-56.3-10.8-73.2c-0.2-28.4,22.7-51.5,51-51.7c0.2,0,0.4,0,0.7,0l0,0
	c28.5,0,51.7,23.7,51.7,51.7c0,16.5-5.9,48.9-10.8,73.2"/>
<path class="st0" d="M215.1,355.1c-4.9,24.1-10.8,56.2-10.8,73.2c-0.2,28.4,22.7,51.5,51,51.7c0.2,0,0.4,0,0.7,0l0,0
	c28.5,0,51.7-23.7,51.7-51.7c0-16.5-5.9-48.9-10.8-73.2"/>
<path class="st0" d="M355.1,215.1c24.1-4.9,56.2-10.8,73.2-10.8c28.4-0.2,51.5,22.7,51.7,51c0,0.2,0,0.4,0,0.7l0,0
	c0,28.6-23.7,51.7-51.7,51.7c-16.5,0-49-5.9-73.2-10.8"/>
<path class="st0" d="M156.9,215.1c-24-4.9-56.2-10.8-73.2-10.8c-28.4-0.2-51.5,22.7-51.7,51c0,0.2,0,0.4,0,0.7l0,0
	c0,28.6,23.7,51.7,51.7,51.7c16.5,0,48.9-5.9,73.2-10.8"/>
<path class="st0" d="M296.9,156.9c13.5-20.5,32.3-47.2,44.4-59.3c19.9-20.2,52.4-20.4,72.6-0.5c0.2,0.2,0.3,0.3,0.5,0.5l0,0
	c20.2,20.2,19.8,53.3,0,73.1c-11.7,11.7-38.7,30.7-59.3,44.4"/>
<path class="st0" d="M156.9,296.9c-20.5,13.5-47.2,32.3-59.3,44.4c-20.2,19.9-20.4,52.4-0.5,72.6c0.2,0.2,0.3,0.3,0.5,0.5l0,0
	c20.2,20.2,53.3,19.8,73.1,0c11.7-11.7,30.7-38.7,44.4-59.3"/>
<path class="st0" d="M355.1,296.9c20.5,13.5,47.2,32.3,59.3,44.4c20.2,19.9,20.4,52.4,0.5,72.6c-0.2,0.2-0.3,0.3-0.5,0.5l0,0
	c-20.2,20.2-53.3,19.8-73.1,0c-11.7-11.7-30.7-38.6-44.4-59.3"/>
<path class="st0" d="M215.1,156.9c-13.5-20.4-32.4-47.3-44.4-59.3c-19.9-20.2-52.4-20.4-72.6-0.5c-0.2,0.2-0.3,0.3-0.5,0.5l0,0
	c-20.2,20.2-19.8,53.3,0,73.1c11.6,11.6,38.7,30.7,59.3,44.4"/>
<circle class="st0" cx="256" cy="256" r="64"/>
</svg>
