<?xml version="1.0" encoding="utf-8"?>
<!-- Generator: Adobe Illustrator 27.0.0, SVG Export Plug-In . SVG Version: 6.00 Build 0)  -->
<svg version="1.1" id="Layer_1" xmlns="http://www.w3.org/2000/svg" xmlns:xlink="http://www.w3.org/1999/xlink" x="0px" y="0px"
	 viewBox="0 0 512 512" style="enable-background:new 0 0 512 512;" xml:space="preserve">
<style type="text/css">
	.st0{fill:none;stroke:#635959;stroke-width:32;stroke-linecap:round;stroke-miterlimit:10;}
	.st1{fill:none;stroke:#635959;stroke-width:32;stroke-linecap:round;stroke-linejoin:round;}
</style>
<circle class="st0" cx="256" cy="256" r="192"/>
<polygon class="st1" points="256,175.1 179.9,239 200,320 256,320 312,320 332.1,239 "/>
<polyline class="st1" points="332.1,239 385,216.6 410.7,143.3 "/>
<line class="st1" x1="447" y1="270" x2="385" y2="216.6"/>
<polyline class="st1" points="179.9,239 127,216.6 101.3,143.3 "/>
<line class="st1" x1="65" y1="270" x2="127" y2="216.6"/>
<polyline class="st1" points="256,175.1 256,117.6 320,74.9 "/>
<line class="st1" x1="192" y1="74.9" x2="256" y2="117.6"/>
<polyline class="st1" points="312,320 340,368 312,439 "/>
<line class="st1" x1="410.7" y1="368" x2="342" y2="368"/>
<polyline class="st1" points="200,320 172,368 200.4,439.5 "/>
<line class="st1" x1="101.6" y1="368" x2="172" y2="368"/>
</svg>
