<svg width="102" height="53" viewBox="0 0 102 53" fill="none" xmlns="http://www.w3.org/2000/svg">
<g clip-path="url(#clip0_151_527)">
<path d="M23.9025 32.6658C23.5366 32.7149 23.2683 32.6658 23.0976 32.4695C22.9268 32.2731 22.8293 32.0523 22.8049 31.7578C22.7805 31.4633 22.7561 31.1933 22.8049 30.9233C22.8537 30.6288 22.8781 30.3589 22.9025 30.0889C22.9268 29.7944 22.9756 29.5244 23.0244 29.2545C23.0732 28.9845 23.0976 28.7145 23.122 28.42L23.3171 26.1131C23.2683 25.8922 23.2683 25.6713 23.3415 25.4504C23.4147 25.2296 23.4878 25.0332 23.561 24.8614L25.7561 24.1252C25.9512 24.027 26.2195 23.8307 26.5122 23.5362C26.8049 23.2171 27.122 22.849 27.439 22.4318C27.7561 21.99 28.0244 21.5728 28.2683 21.1065C28.7805 20.1493 29.2195 19.2167 29.561 18.3087C29.9025 17.4006 30.1951 16.4926 30.4147 15.56C30.6342 14.6274 30.8537 13.6211 31.0732 12.5413C31.2683 11.4614 31.5122 10.2589 31.7561 8.90905C31.8049 8.71271 31.8537 8.49183 31.8781 8.2955C31.9025 8.09916 31.9512 7.87828 32 7.68194C31.9268 7.68194 31.8293 7.68194 31.7073 7.68194C31.5854 7.68194 31.5122 7.68194 31.5122 7.68194C31.0732 7.55923 30.7561 7.28927 30.5122 6.89659C30.2683 6.50392 30.1951 6.0867 30.2439 5.69403C30.2439 5.54678 30.3415 5.42407 30.5366 5.39952C30.7317 5.35044 30.9512 5.3259 31.1951 5.30136C31.439 5.27681 31.6586 5.22773 31.8537 5.17864C32.3903 5.00685 32.8049 4.88414 33.1464 4.78597C33.4878 4.6878 33.7561 4.61418 33.9756 4.54055C34.1951 4.46692 34.3659 4.41784 34.4878 4.34421C35.2927 4.14788 36 4.00062 36.6342 3.85337C37.2439 3.73066 37.8537 3.60795 38.439 3.48524C39.0244 3.38707 39.6586 3.26436 40.3415 3.19073C40.7317 3.14165 41.122 3.19073 41.5122 3.41161C41.9025 3.60795 42.1707 3.87791 42.2927 4.19696C42.3415 4.46692 42.3415 4.93322 42.2927 5.6204C42.2439 6.30758 42.1464 7.09293 42 8.00099C41.8537 8.90905 41.7073 9.86619 41.5122 10.8479C41.3171 11.8541 41.122 12.8112 40.9025 13.7684C40.6829 14.7255 40.4878 15.56 40.2683 16.2717C40.1707 16.6644 40.0976 17.0325 40.0244 17.4252C39.9512 17.7933 39.8293 18.2596 39.6829 18.8241C39.6342 19.094 39.561 19.3885 39.439 19.7321C39.3171 20.0757 39.2439 20.4438 39.1951 20.8365C39.1707 21.0574 39.1951 21.1801 39.2927 21.2047C39.3903 21.2047 39.5122 21.2047 39.7073 21.1065C39.9025 21.0329 40.0976 20.9347 40.3415 20.8365C40.5854 20.7384 40.7805 20.6893 40.9756 20.6402C41.0732 20.6156 41.1707 20.5911 41.2439 20.5666C41.3171 20.542 41.4147 20.5666 41.4878 20.5911C41.9268 20.6647 42.2683 20.8611 42.5122 21.1556C42.7561 21.4501 42.9025 21.7691 42.9268 22.1127C42.9756 22.7753 42.9268 23.5116 42.7561 24.346C42.5854 25.1559 42.3659 25.9658 42.0976 26.7512C41.8293 27.5365 41.5854 28.2482 41.3415 28.8618C41.3415 28.9845 41.2927 29.1072 41.2439 29.2299C41.1951 29.3526 41.1707 29.4753 41.122 29.6226C41.0976 29.7453 41.0488 29.8926 41 30.0153C40.8781 30.1871 40.6829 30.2852 40.4878 30.3098C40.2683 30.3098 40.0244 30.2607 39.7561 30.0889C39.4878 29.9171 39.1951 29.6471 38.8781 29.3036C38.7561 29.0336 38.7317 28.7636 38.7561 28.4691C38.7805 28.1746 38.8781 27.7819 39.0732 27.3402C39.3171 26.653 39.561 25.9904 39.8049 25.3768C40.0488 24.7633 40.1951 24.2233 40.2927 23.7816L40.3415 23.3889C40.0244 23.438 39.7317 23.5116 39.4146 23.5852C39.0976 23.6589 38.7805 23.7325 38.439 23.8307C38.0976 23.9043 37.7805 24.0025 37.439 24.0761C37.0976 24.1497 36.7805 24.2233 36.4634 24.3215C36.3903 24.297 36.3415 24.2724 36.2927 24.3215C36.2439 24.3215 36.1464 24.3706 36 24.4442L34.1707 24.7387L33.8293 24.7878C33.8293 24.7878 33.6586 24.8123 33.5854 24.8614C33.1464 25.0332 32.8293 25.1314 32.6098 25.1314C32.3903 25.1314 32.0976 25.1805 31.7561 25.3032C31.439 25.3768 31.1464 25.4259 30.8293 25.5241C30.5122 25.6222 30.1951 25.6713 29.8781 25.7449C29.561 25.8186 29.2439 25.8922 28.9268 25.9658C28.6098 26.0394 28.2927 26.1131 27.9756 26.1867C27.6586 26.2603 27.3415 26.334 27.0244 26.4076C26.8049 26.4567 26.6098 26.5057 26.3903 26.5794C26.1707 26.6285 25.9756 26.7021 25.7561 26.7757C25.6586 27.4629 25.561 28.1992 25.4634 28.96C25.3903 29.7453 25.3171 30.4079 25.2683 30.9724C25.2195 31.5369 25.1707 31.8559 25.1707 31.905C25.1707 32.1014 25.0976 32.2731 24.9512 32.4449C24.8049 32.5922 24.439 32.7149 23.8293 32.8131L23.9025 32.6658ZM29.2927 23.3153C29.6098 23.2416 30.0732 23.168 30.6829 23.0453C31.2683 22.9226 31.9025 22.7999 32.5854 22.6526C33.2439 22.5054 33.9025 22.3581 34.5122 22.2109C35.122 22.0636 35.6342 21.9409 36.0488 21.8673C36.4634 21.7691 36.6829 21.72 36.7073 21.6955C36.7805 20.7874 36.8537 20.1248 36.9025 19.683C36.9512 19.2413 37.0244 18.8732 37.0732 18.5786C37.1464 18.2841 37.2439 17.916 37.3903 17.4497C37.4878 17.0816 37.561 16.7134 37.6342 16.3699C37.7073 16.0017 37.8049 15.6581 37.8781 15.29C37.9512 14.9219 38.0488 14.5783 38.122 14.2101C38.1951 13.842 38.2927 13.4984 38.3659 13.1303C38.439 12.7622 38.5366 12.4186 38.6098 12.0504C38.8781 10.6025 39.122 9.37535 39.3415 8.34458C39.5366 7.31381 39.6829 6.47938 39.7317 5.81674C39.3415 5.84128 38.9025 5.91491 38.4147 5.98854C37.9268 6.0867 37.439 6.18487 36.9512 6.28304C36.4634 6.40575 36.0244 6.52846 35.6342 6.65117C35.2439 6.77388 34.9512 6.92114 34.7317 7.04385L34.5366 8.17278C34.5366 8.17278 34.4634 8.61454 34.3415 9.17901C34.2195 9.74348 34.0244 10.4797 33.8049 11.3633C33.5854 12.2468 33.3171 13.2285 32.9756 14.3083C32.6586 15.3882 32.3171 16.468 31.9268 17.5724C31.561 18.6768 31.1464 19.7321 30.7073 20.7138C30.2683 21.72 29.8049 22.579 29.3171 23.2907L29.2927 23.3153Z" fill="#635959" stroke="#635959" stroke-width="0.25"/>
<path d="M46.3171 22.7506C46.2195 22.6034 46.0244 22.4806 45.7561 22.3579C45.4634 22.2352 45.3171 22.1371 45.3171 22.0634C45.3171 21.9898 45.2439 21.8671 45.1464 21.7198C45.0488 21.5726 44.9268 21.4499 44.8537 21.3763C44.7317 21.2781 44.7317 20.9836 44.8293 20.4927C44.9268 20.0264 45.0732 19.4129 45.2927 18.7257C45.5122 18.014 45.7561 17.3023 46.0488 16.566C46.1708 16.3942 46.3171 16.1733 46.439 15.8788C46.561 15.6089 46.6586 15.4125 46.7317 15.3389C46.7317 15.2653 46.7317 15.1916 46.7805 15.118C46.8293 15.0444 46.9025 14.9953 46.9756 14.9953L47.1464 14.5045C47.1464 14.5045 47.2683 14.259 47.439 13.9891C47.6098 13.7191 47.8293 13.4246 48.0732 13.1056C48.3171 12.7865 48.5854 12.4675 48.8537 12.173C49.122 11.8785 49.3415 11.6576 49.5122 11.5103C49.8781 11.1913 50.2927 10.9949 50.7317 10.9704C51.1708 10.9213 51.561 11.0195 51.9025 11.2404C51.9756 11.2894 52.122 11.3876 52.3415 11.5349C52.561 11.6821 52.8293 11.8539 53.122 12.0257C53.4147 12.1975 53.6586 12.3693 53.8781 12.5165L55.0732 13.3264L54.7805 14.8481C54.6342 15.6579 54.6586 16.3451 54.8537 16.9096C55.0488 17.4741 55.2927 17.9649 55.6098 18.3576C55.7317 18.5539 55.8781 18.7012 56.0732 18.7993C56.2439 18.8975 56.4878 18.9466 56.7561 18.9466C56.9025 18.9466 57.0732 18.9957 57.2195 19.0693C57.3659 19.1429 57.4634 19.2902 57.4878 19.5111C57.561 19.9774 57.4878 20.3209 57.3659 20.5418C57.2195 20.7627 57.0732 20.91 56.8781 20.9836C56.2439 21.1554 55.6342 21.1554 55.0244 21.0327C54.4147 20.8854 53.8293 20.4191 53.2439 19.5847C53.1464 19.4865 53.0244 19.2656 52.8537 18.9711C52.6829 18.6766 52.5854 18.4803 52.561 18.3821C52.4878 18.4803 52.4147 18.6275 52.3171 18.7993C52.2195 18.9711 52.0976 19.1184 52 19.2411C50.8049 20.8363 49.7561 21.8916 48.8293 22.4561C47.9025 22.996 47.0976 23.1187 46.3659 22.7752L46.3171 22.7506ZM48.1951 19.8056C48.4634 19.6092 48.8049 19.2656 49.2439 18.8239C49.8293 18.1612 50.2927 17.6213 50.6829 17.2041C51.0488 16.7869 51.4147 16.247 51.7317 15.6089L52.2195 14.4799C51.9756 14.0627 51.7561 13.7927 51.5854 13.67C51.4147 13.5473 51.2439 13.4982 51.0976 13.5228C50.8537 13.5473 50.561 13.7682 50.2683 14.1363C49.9756 14.5045 49.6342 15.0198 49.2683 15.707C48.9025 16.3697 48.5366 17.2041 48.0976 18.1858C47.9025 18.6521 47.7317 19.2902 47.561 20.1246C47.7073 20.1246 47.9025 20.0264 48.1708 19.8301L48.1951 19.8056Z" fill="#635959" stroke="#635959" stroke-width="0.25"/>
<path d="M61.5853 21.6953C61.1707 21.7689 60.7317 21.7444 60.2927 21.6462C59.8536 21.5481 59.4878 21.2781 59.1707 20.8363C58.9268 20.4927 58.7317 20.1001 58.6097 19.6829C58.4878 19.2656 58.4146 18.8484 58.439 18.4558C58.5122 17.1305 58.561 16.1733 58.6585 15.5843C58.7317 14.9708 58.7805 14.6272 58.7805 14.5536C58.8049 14.4799 58.8536 14.2836 58.9024 14.0136C58.9512 13.7191 59.0244 13.4737 59.1219 13.2774C59.1707 12.9829 59.1707 12.6393 59.0731 12.2466C59.0244 12.0993 59.0244 11.903 59.0731 11.6821C59.1219 11.4612 59.1951 11.2895 59.2927 11.1667C59.5853 10.8722 59.8049 10.5041 59.9512 10.0623C60 9.91509 60.0488 9.69421 60.1463 9.39971C60.2439 9.1052 60.3658 8.78615 60.4878 8.46711C60.6097 8.14806 60.7073 7.8781 60.7805 7.68176C61.0488 7.24 61.2927 6.74916 61.561 6.18469C61.8292 5.62022 62.1219 5.12938 62.4878 4.68762C62.6829 4.22132 62.9512 3.8041 63.2683 3.41143C63.6097 3.01876 63.9268 2.65062 64.2683 2.30703C64.6097 1.96344 64.878 1.6444 65.0731 1.37443C65.1951 1.1781 65.4878 1.0063 65.9512 0.834507C66.4146 0.662713 66.7561 0.540002 67.0244 0.417291C67.317 0.270039 67.6829 0.294581 68.0975 0.441833C68.5122 0.613628 68.8049 0.760881 68.9512 0.932676C69.3171 1.39898 69.5366 1.79165 69.6341 2.13524C69.7317 2.47883 69.7561 2.84696 69.6585 3.28872C69.5853 3.73048 69.4146 4.34403 69.1707 5.12938C68.878 5.96381 68.439 6.79824 67.7805 7.63267C67.1219 8.46711 66.4634 9.22791 65.7317 9.89055C65.4146 10.2832 65.0488 10.6268 64.6341 10.9949C64.2195 11.3385 63.8292 11.6576 63.4634 11.9275C63.2195 12.0993 63 12.2466 62.7317 12.3938C62.4878 12.5411 62.2439 12.6638 61.9756 12.8111C61.8536 12.8601 61.7561 12.9829 61.7317 13.1792C61.7073 13.351 61.6585 13.5964 61.6097 13.8418C61.6097 14.0136 61.6097 14.1854 61.5366 14.3081C61.4878 14.4554 61.439 14.5536 61.4146 14.6026C61.3658 14.6763 61.317 14.8481 61.2927 15.1671C61.2439 15.4616 61.2195 15.8297 61.1951 16.247C61.1951 16.6642 61.1463 17.0814 61.1219 17.4741C61.0975 17.8667 61.0731 18.1858 61.0731 18.4067C61.0731 18.6275 61.0731 18.7748 61.1219 18.873C61.1707 18.9466 61.2439 19.0202 61.3414 19.0448C61.561 18.9711 61.7073 18.873 61.7805 18.7012C61.8536 18.5294 61.9756 18.3821 62.0731 18.2103C62.1951 17.9158 62.2927 17.6459 62.3658 17.4004C62.439 17.155 62.5122 16.836 62.6097 16.4678C62.6585 16.247 62.7073 15.977 62.7561 15.6825C62.8049 15.388 62.8536 15.1426 62.9268 14.9217C62.878 14.5045 62.8292 14.21 62.7805 14.0136C62.7317 13.8173 62.7073 13.6455 62.6585 13.5228C62.6097 13.4001 62.5366 13.2528 62.4634 13.1056C62.5366 12.5656 62.6097 12.2466 62.7073 12.1239C62.8049 12.0257 62.9268 11.9766 63.0731 12.0012C63.4634 12.0257 63.8292 12.0993 64.1219 12.2466C64.4146 12.3938 64.7073 12.5411 64.9756 12.7374C65.0975 12.8111 65.1951 12.9338 65.2683 13.081C65.3414 13.2283 65.3658 13.351 65.3414 13.4492C65.3414 13.6946 65.3414 13.94 65.3658 14.21C65.3658 14.4799 65.3658 14.7253 65.4146 14.9217C65.317 15.2407 65.2439 15.6579 65.1951 16.1733C65.1463 16.6642 65.0488 17.1305 64.9512 17.5722C64.878 17.8422 64.7317 18.2103 64.5122 18.6521C64.3171 19.1184 64.1463 19.462 64.0244 19.6829C63.8049 20.0264 63.5122 20.37 63.0731 20.6891C62.6585 21.0327 62.2683 21.3517 61.9268 21.6708L61.5853 21.7199V21.6953ZM62.1951 9.79238C62.1951 9.79238 62.439 9.79238 62.561 9.71876C62.6829 9.64513 62.8049 9.5715 62.9024 9.49788C63.561 9.08066 64.1707 8.58982 64.7561 7.97626C65.3414 7.36271 65.8536 6.74916 66.2683 6.11106C66.7073 5.47297 67 4.9085 67.1707 4.39312C67.2683 4.17224 67.3414 3.87773 67.4634 3.53414C67.561 3.19055 67.5853 2.79788 67.561 2.35612L67.439 2.15978C67.1219 2.45429 66.8049 2.79788 66.4878 3.19055C66.1707 3.58322 65.7805 4.04953 65.3414 4.63854C65.1707 4.85942 64.9512 5.15392 64.6585 5.54659C64.3658 5.93927 64.0731 6.35648 63.7561 6.84733C63.439 7.31363 63.1219 7.82901 62.8536 8.31985C62.561 8.83524 62.3414 9.30154 62.1951 9.76784V9.79238Z" fill="#635959" stroke="#635959" stroke-width="0.25"/>
<path d="M71.8781 19.5112C71.7317 19.5603 71.5366 19.6094 71.2683 19.6339C71.0244 19.6339 70.8049 19.6339 70.6098 19.6339C70.4147 19.6339 70.3171 19.5603 70.3171 19.5112C70.3171 19.413 70.2439 19.3639 70.1464 19.3885C69.6829 19.1185 69.3415 18.9467 69.1708 18.8976C68.9512 18.6522 68.8049 18.3577 68.7073 17.9896C68.6098 17.646 68.6342 16.9834 68.7805 16.0262C68.7073 15.4127 68.7805 14.7255 69.0488 13.9892C69.2927 13.2529 69.6098 12.5167 70.0244 11.7804C70.439 11.0442 70.8781 10.3815 71.3659 9.79251C71.8293 9.2035 72.2683 8.76174 72.6586 8.44269C72.9025 8.12364 73.2439 7.92731 73.6829 7.85368C74.1464 7.78005 74.5366 7.8046 74.9268 7.95185C75.122 8.02548 75.3659 8.19727 75.6342 8.44269C75.9025 8.71266 76.1708 8.98262 76.4147 9.27712C76.6586 9.57163 76.8781 9.84159 77.0244 10.0625C77.122 10.2588 77.1951 10.4551 77.2683 10.6024C77.3415 10.7742 77.3903 10.946 77.439 11.1914C77.4878 11.4123 77.5122 11.7804 77.5122 12.2467C77.4634 12.6149 77.4147 12.983 77.4147 13.3511C77.4147 13.7192 77.4147 14.0874 77.4634 14.4555C77.4634 14.8236 77.561 15.0936 77.7073 15.2163C77.8537 15.3636 78.0488 15.339 78.2683 15.1672C78.4878 15.02 78.7317 14.9709 78.9756 15.02C79.2195 15.0691 79.439 15.2163 79.5854 15.4127C79.7317 15.6335 79.7317 15.9035 79.5854 16.2962C79.5122 16.5661 79.3415 16.8361 79.122 17.1061C78.9025 17.376 78.6342 17.5969 78.3659 17.7932C78.0976 17.9896 77.7805 18.0877 77.4878 18.1368C77.2683 18.1614 77.0488 18.1123 76.8293 17.965C76.5854 17.8178 76.3659 17.6214 76.1464 17.3515C75.9268 17.0815 75.7561 16.787 75.5854 16.4434L75.3171 15.8053L74.3903 16.9097C74.1708 17.2288 73.9512 17.4987 73.7561 17.7442C73.5366 17.9896 73.4147 18.1859 73.3659 18.2841C73.2927 18.4804 73.122 18.6522 72.8537 18.824C72.5854 18.9958 72.2439 19.1921 71.8293 19.4376L71.8781 19.5112ZM72.2927 16.6152C72.5854 16.3698 72.8537 16.0998 73.0488 15.8053C73.2439 15.5108 73.439 15.1672 73.6342 14.7991C73.8293 14.431 74.0244 14.0383 74.2439 13.5965C74.5122 13.1057 74.7073 12.713 74.8049 12.4185C74.9025 12.124 74.9756 11.8295 75.0244 11.4859C74.9269 11.2896 74.7805 11.0687 74.6098 10.8478C74.439 10.6269 74.2927 10.5042 74.1464 10.5042C73.8781 10.5288 73.5854 10.7497 73.2439 11.1423C72.9025 11.535 72.561 12.0504 72.1951 12.7376C72.122 12.8357 72.0488 13.0075 71.9756 13.2529C71.8781 13.4738 71.8049 13.6947 71.7317 13.891C71.6586 14.0874 71.5854 14.2101 71.561 14.2837C71.5122 14.3819 71.4634 14.5537 71.3903 14.8482C71.3171 15.1427 71.2683 15.4372 71.2195 15.7317C71.1708 16.0262 71.1708 16.2225 71.1951 16.3453C71.2195 16.468 71.2439 16.5907 71.2927 16.7134C71.3415 16.8361 71.439 16.9097 71.6098 16.9343C71.7805 16.9343 72 16.8361 72.2927 16.6152Z" fill="#635959" stroke="#635959" stroke-width="0.25"/>
<path d="M87.8049 17.9405C87.6829 18.0386 87.4878 18.0386 87.2683 17.9405C87.0244 17.8423 86.7805 17.6705 86.5366 17.4251C86.3658 17.2042 86.2439 16.9833 86.1463 16.7624C86.0488 16.517 85.9756 16.1734 85.9024 15.6826C85.878 15.2899 85.8293 15.02 85.8049 14.8727C85.7805 14.7254 85.6829 14.7254 85.5366 14.8727C85.3902 15.02 85.0976 15.3635 84.6829 15.9035C84.2683 16.4434 83.8537 16.9342 83.4634 17.3269C83.0732 17.7196 82.7317 17.9405 82.4634 17.9405C82.3171 17.9405 82.1219 17.8914 81.878 17.7441C81.6341 17.5969 81.3658 17.4005 81.1219 17.1797C80.878 16.9588 80.6829 16.7134 80.561 16.4925C80.3902 16.0507 80.2927 15.4372 80.3171 14.6764C80.3171 13.9156 80.3902 13.1302 80.5366 12.2712C80.6829 11.4123 80.8536 10.6269 81.0976 9.89065C81.3171 9.12984 81.561 8.51629 81.8293 8.04999C82.0975 7.55915 82.3414 7.31373 82.561 7.31373C82.9024 7.31373 83.1951 7.43644 83.4878 7.68186C83.7561 7.92728 84 8.22179 84.1707 8.51629C84.2683 8.639 84.3171 8.76171 84.3171 8.85988C84.3171 8.95805 84.2439 9.08076 84.1219 9.25255C83.9756 9.49798 83.8049 9.86611 83.6341 10.3324C83.439 10.7987 83.2683 11.3141 83.0975 11.854C82.9268 12.3939 82.7805 12.9093 82.6585 13.3756C82.5366 13.8665 82.4634 14.2591 82.4146 14.5537C82.3658 14.8482 82.4146 14.9954 82.4634 14.9954C82.7317 14.9709 82.9756 14.8482 83.1951 14.6764C83.4146 14.5046 83.6585 14.2101 83.9756 13.8419C84.3171 13.3756 84.6341 12.9093 84.878 12.4676C85.1219 12.0013 85.3902 11.4859 85.6341 10.8969C85.8293 10.4797 86.0488 10.0134 86.2683 9.49798C86.4878 8.98259 86.6097 8.639 86.6829 8.44267C86.878 7.90274 87.0488 7.48552 87.1463 7.21556C87.2439 6.9456 87.3902 6.7738 87.5854 6.67563L88.2439 6.57746C88.2439 6.57746 88.5122 6.65109 88.6829 6.7738C88.8536 6.82288 89.0244 6.92105 89.1951 7.01922C89.3658 7.14193 89.4634 7.2401 89.4878 7.33827C89.439 7.53461 89.3415 7.85365 89.2439 8.24633C89.1219 8.639 89.0488 8.93351 89 9.12984C88.7561 10.0134 88.5122 10.8969 88.2683 11.7313C88.0244 12.5657 87.9024 13.4493 87.8536 14.3082C87.8536 14.5782 87.878 14.8972 87.9756 15.2654C88.0488 15.6335 88.1463 15.8789 88.2439 16.0262C88.3171 16.1244 88.4146 16.2471 88.5122 16.3943C88.6097 16.517 88.7317 16.6397 88.8536 16.7134C89.0488 16.8115 89.0488 16.9588 88.9024 17.1551C88.7317 17.3515 88.5366 17.5233 88.2927 17.695C88.0488 17.8668 87.9024 17.9405 87.8293 17.9405H87.8049ZM85.7805 5.08039C85.0975 5.17856 84.5366 5.08039 84.0732 4.7368C83.6097 4.39321 83.1707 3.77966 82.7073 2.8716C82.6097 2.67527 82.5854 2.47893 82.6097 2.28259C82.6097 2.08626 82.6585 1.939 82.7073 1.84083C82.8293 1.66904 82.9756 1.54633 83.1463 1.49724C83.3171 1.44816 83.4634 1.42362 83.5366 1.44816C83.8293 1.49724 84.0732 1.61995 84.3171 1.74267C84.561 1.86538 84.6829 2.13534 84.7073 2.52801C84.7561 2.62618 84.8049 2.69981 84.8537 2.79798C84.9024 2.8716 84.9268 2.94523 84.9512 2.96977C85.0244 3.09248 85.1219 3.16611 85.2439 3.16611C85.3658 3.16611 85.439 3.16611 85.5122 3.11702C85.878 2.92069 86.1951 2.69981 86.4878 2.50347C86.7805 2.30713 87.0244 2.06171 87.2195 1.76721C87.4146 1.52179 87.5854 1.32545 87.7317 1.15365C87.878 0.98186 88.0488 0.785522 88.2195 0.564643H88.2439C88.4146 0.343764 88.6341 0.270138 88.9024 0.319222C89.1707 0.343764 89.3171 0.417391 89.3415 0.515559C89.4634 0.589185 89.5366 0.76098 89.5854 0.98186C89.6341 1.20274 89.6829 1.39908 89.7073 1.54633V1.66904C89.6341 1.81629 89.5854 2.01263 89.5366 2.23351C89.4878 2.47893 89.3171 2.72435 89.0244 2.99431C88.7073 3.36245 88.4146 3.65695 88.0732 3.90237C87.7317 4.14779 87.3902 4.41776 86.9756 4.7368C86.8536 4.83497 86.6829 4.9086 86.5122 4.95768C86.3415 5.00677 86.0975 5.05585 85.8293 5.10494L85.7805 5.08039Z" fill="#635959" stroke="#635959" stroke-width="0.25"/>
<path d="M19.0244 48.741C19.0244 48.741 18.7805 48.8882 18.4878 48.9128C18.1951 48.9373 17.9268 48.8391 17.7073 48.6183C17.5122 48.3728 17.3903 48.0783 17.2927 47.7347C17.2195 47.3912 17.122 46.9003 17.0244 46.2868C17.0244 45.5996 17.0244 44.667 17.0976 43.5135C17.1464 42.36 17.2195 41.0838 17.3171 39.6604C17.4146 38.2369 17.4634 36.789 17.561 35.2919C17.6098 34.5802 17.6342 33.9912 17.6586 33.5003C17.6829 33.0095 17.6829 32.5186 17.6829 32.0278C17.6829 32.0769 17.6586 32.1014 17.6342 32.1505C17.6342 32.1996 17.5854 32.2487 17.5854 32.2732C17.5854 32.3223 17.5854 32.3468 17.561 32.3959C17.4878 32.6904 17.3659 33.034 17.2195 33.4021C17.0976 33.6721 17.0244 33.9666 16.9512 34.2857C16.8781 34.6293 16.7317 35.071 16.4878 35.6355C16.2927 36.2736 16.0732 37.0098 15.8293 37.8197C15.5854 38.6296 15.3659 39.3168 15.1951 39.8076C15.0976 40.0531 15.0244 40.2494 14.9512 40.4212C14.8781 40.593 14.8293 40.7402 14.8049 40.8384C14.7805 41.0593 14.6829 41.3538 14.5854 41.6974C14.4634 42.041 14.3171 42.3846 14.1464 42.7036C14.0732 42.8999 13.9512 43.1208 13.8049 43.3908C13.6586 43.6608 13.4878 44.0043 13.2927 44.4216C13.2927 44.5443 13.1951 44.7406 13.0244 45.0351C12.8537 45.3296 12.6586 45.6487 12.4146 46.0168C12.1707 46.3849 11.9268 46.704 11.6586 47.023C11.0976 47.6857 10.6098 48.1274 10.1951 48.3483C9.7805 48.5692 9.26831 48.4956 8.63416 48.1274C8.31709 47.8575 8.07319 47.5875 7.85367 47.293C7.63416 46.9985 7.48782 46.5813 7.36587 46.0168C7.24392 45.4523 7.21953 44.667 7.21953 43.6117C7.21953 42.949 7.24392 42.2373 7.2927 41.501C7.31709 40.7648 7.36587 40.0285 7.41465 39.3413C7.46343 38.6542 7.51221 38.0406 7.56099 37.5252C7.60977 37.0098 7.65855 36.6417 7.65855 36.4454C7.63416 35.9545 7.58538 35.6846 7.5366 35.6846C7.48782 35.6846 7.41465 35.7827 7.31709 36.0772C7.21953 36.3227 7.04879 36.8135 6.82928 37.5498C6.58538 38.286 6.34148 39.1695 6.04879 40.1512C5.75611 41.1329 5.51221 42.1391 5.24392 43.1208C4.73172 44.7406 4.2927 46.0904 3.95123 47.1703C3.60977 48.2501 3.31709 49.1336 3.07318 49.7717C2.82928 50.4344 2.65855 50.9252 2.5366 51.2443C2.41465 51.5633 2.31709 51.8087 2.24392 51.956C2.17075 52.1032 2.12197 52.2014 2.09758 52.226C1.80489 52.2505 1.5366 52.1769 1.26831 51.956C1.00001 51.7351 0.780502 51.4897 0.58538 51.1461C0.512209 50.9498 0.439039 50.7534 0.390258 50.5571C0.341478 50.3608 0.317087 50.1153 0.341478 49.8454C0.341478 49.5754 0.414648 49.2564 0.512209 48.9373C0.658551 48.3974 0.829282 47.9065 1.00001 47.5384C1.17075 47.1457 1.26831 46.9003 1.31709 46.8267C1.39026 46.6794 1.43904 46.5076 1.46343 46.3604C1.48782 46.2131 1.51221 46.0413 1.48782 45.8941C1.56099 45.7714 1.65855 45.5014 1.80489 45.0842C1.95123 44.667 2.07318 44.2498 2.19514 43.7835C2.2927 43.5135 2.43904 43.1208 2.63416 42.6054C2.82928 42.0901 3.00001 41.5501 3.21953 40.9611C3.41465 40.3721 3.60977 39.8322 3.75611 39.3413C4.31709 37.6479 4.75611 36.2981 5.07318 35.2919C5.39026 34.2857 5.63416 33.623 5.80489 33.3285C5.92684 33.2058 6.00001 32.9849 6.04879 32.6904C6.09758 32.3959 6.14636 32.175 6.19514 32.0278C6.36587 31.4388 6.56099 30.9479 6.75611 30.5307C6.97562 30.1135 7.17075 29.8926 7.39026 29.8681C7.5366 29.8435 7.75611 29.8681 8.0244 29.9172C8.2927 29.9662 8.56099 30.1135 8.82928 30.2853C9.09758 30.5062 9.34148 30.8007 9.60977 31.1688C9.87806 31.5369 10 32.0769 10.0244 32.7886C10.0732 33.1076 10.0732 33.4758 10.0976 33.9421C10.0976 34.3838 10.0976 34.8256 10.0976 35.2673C10.0976 35.7091 10.0976 36.0772 10.0732 36.3717C10.0732 37.2798 10.0732 38.1142 10.0244 38.9487C10 39.7586 9.95123 40.5194 9.92684 41.2065C9.90245 41.8937 9.87806 42.4827 9.87806 42.9981C9.87806 43.5135 9.87806 43.9307 9.92684 44.2252C9.95123 44.5443 10.0244 44.7406 10.1464 44.8142C10.2195 44.8142 10.2927 44.7897 10.3659 44.6915C10.4634 44.5933 10.5366 44.5197 10.561 44.4216C10.6586 44.2498 10.7317 44.078 10.7805 43.9062C10.8537 43.7344 10.9268 43.5135 11.0488 43.2435C11.2683 42.7527 11.5122 42.2373 11.7561 41.6483C12 41.0593 12.2683 40.3476 12.6098 39.5131C12.9268 38.6542 13.3171 37.5988 13.7561 36.3472C14.1951 35.0956 14.7317 33.5494 15.3415 31.6842C15.6586 30.9234 15.9512 30.1626 16.2195 29.4263C16.4878 28.6655 16.7561 28.0765 17.0244 27.6593C17.2439 27.2912 17.5854 27.1194 18.0488 27.1439C18.4878 27.1439 18.9512 27.3157 19.3903 27.6347C19.8293 27.9538 20.122 28.3955 20.2683 28.9355C20.3415 29.2054 20.3659 29.6963 20.3903 30.408C20.3903 31.1197 20.3903 31.9051 20.3171 32.8131C20.2683 33.6966 20.1707 34.5802 20.0732 35.4391C20.0732 35.7827 20.0732 36.2245 20.0244 36.789C20 37.3534 19.9512 37.9424 19.9025 38.5314C19.8537 39.1205 19.8049 39.6604 19.7561 40.1267C19.7561 40.8139 19.7561 41.3538 19.7317 41.7465C19.7317 42.1391 19.7561 42.6054 19.8537 43.0963C19.7317 43.4399 19.7073 43.9062 19.7561 44.4952C19.8049 45.0842 19.9025 45.6978 20 46.3113C20.0732 47.0721 20 47.6366 19.8293 48.0047C19.6586 48.3483 19.5122 48.5446 19.439 48.5201C19.2683 48.4956 19.1707 48.5692 19.0976 48.741H19.0244Z" fill="#635959" stroke="#635959" stroke-width="0.25"/>
<path d="M28.6342 44.8634C28.122 45.3051 27.5366 45.5996 26.9025 45.7714C26.2683 45.9432 25.6586 45.9678 25.0488 45.845C24.4391 45.7223 23.9269 45.4769 23.5122 45.1088C23.2683 44.8879 23.0244 44.5198 22.7317 44.0044C22.4634 43.489 22.2927 42.7527 22.2195 41.771C22.1708 40.863 22.2683 39.9058 22.5366 38.9242C22.8049 37.9425 23.1708 37.0344 23.683 36.2245C24.1952 35.4146 24.7805 34.8011 25.4878 34.4084C25.7317 34.2612 26 34.1384 26.2683 34.0403C26.5366 33.9421 26.9025 33.8685 27.3659 33.8194C27.8293 33.7949 28.2439 33.8194 28.6098 33.9176C28.9756 34.0157 29.2683 34.1384 29.4634 34.3102C29.8293 34.5557 30.0976 34.8256 30.2439 35.0956C30.3903 35.3656 30.4878 35.6355 30.5122 35.9055C30.5122 36.5436 30.3903 37.2553 30.0732 38.0652C29.7561 38.8751 29.2195 39.5132 28.4878 40.004C28.1952 40.2003 27.8293 40.3721 27.3903 40.4949C26.9513 40.6176 26.3415 40.6667 25.5366 40.6667C25.0488 40.6667 24.7561 40.7648 24.6586 40.9857C24.561 41.2066 24.561 41.5993 24.683 42.1392C24.7805 42.4828 24.9269 42.7773 25.0976 42.9982C25.2683 43.2436 25.5366 43.3663 25.9025 43.3908C26.3659 43.3908 26.683 43.3172 26.8537 43.219C27.0244 43.1209 27.2439 42.9736 27.5122 42.7773C27.6586 42.6546 27.7805 42.5073 27.9025 42.3846C28.0244 42.2619 28.1464 42.0901 28.2683 41.9428C28.3903 41.7956 28.4878 41.6974 28.5854 41.6238C28.6586 41.5256 28.7561 41.452 28.8537 41.4275C28.9513 41.4029 29.0488 41.3538 29.1464 41.3538C29.3659 41.3538 29.5854 41.4029 29.8049 41.5747C30.0488 41.7465 30.1952 41.9183 30.2927 42.1146C30.3171 42.2619 30.2683 42.5073 30.122 42.8264C29.9756 43.1454 29.7805 43.489 29.5122 43.8326C29.2439 44.2007 28.9513 44.5198 28.6098 44.8388L28.6342 44.8634ZM27.0488 38.4824C27.1708 38.4088 27.3415 38.237 27.561 37.967C27.7805 37.6971 27.9756 37.4271 28.1464 37.1571C28.3171 36.8872 28.3903 36.6663 28.3659 36.5436C28.3171 36.3227 28.1464 36.1754 27.8537 36.0773C27.5366 35.9791 27.1708 36.0282 26.7561 36.2C26.6098 36.2736 26.4391 36.3963 26.2683 36.6172C26.0976 36.8381 25.9269 37.059 25.7561 37.3289C25.5854 37.5989 25.4391 37.8443 25.3415 38.0652C25.2439 38.2861 25.1464 38.4824 25.122 38.6051C25.2195 38.6787 25.3903 38.7278 25.6342 38.7524C25.8781 38.7524 26.122 38.7524 26.4147 38.7033C26.7073 38.6542 26.9269 38.5806 27.0976 38.5069L27.0488 38.4824Z" fill="#635959" stroke="#635959" stroke-width="0.25"/>
<path d="M39.5854 32.2974C39.8293 32.1011 40.1464 31.9784 40.561 31.9539C40.9756 31.9293 41.3415 32.0275 41.6586 32.2729C41.9756 32.5183 42.0976 32.9355 42.0732 33.5491C42.0244 33.7209 41.9756 33.9172 41.8781 34.1626C41.8049 34.4081 41.7317 34.6535 41.6586 34.8989C41.5854 35.1689 41.5122 35.4143 41.4635 35.6352C41.4147 35.8561 41.3659 36.0769 41.3415 36.2242V36.3224C41.6098 36.3469 41.7805 36.5187 41.9025 36.8132C42.0244 37.1077 42.0732 37.3286 42.0488 37.4758C41.9513 37.7213 41.8781 37.8685 41.8049 37.9421C41.7317 38.0158 41.5366 38.1385 41.2195 38.2857C41.1464 38.3103 41.0976 38.3593 41.0488 38.3839C41 38.4084 40.9756 38.4575 40.9756 38.5557C40.9756 38.9238 40.9756 39.2919 40.9756 39.611C40.9756 39.9546 40.9513 40.2736 40.9269 40.5927C40.9025 40.9117 40.8537 41.2308 40.8293 41.5498C40.8293 41.7216 40.7805 41.8934 40.683 42.0897C40.6098 42.2861 40.3659 42.4333 40 42.556C39.5854 42.4824 39.2927 42.4088 39.122 42.3843C38.9513 42.3597 38.7805 42.2861 38.6586 42.2125C38.5366 42.1634 38.4391 41.967 38.3903 41.6725C38.3415 41.3535 38.3415 41.0835 38.3903 40.8381C38.4391 40.5191 38.4634 40.2491 38.5122 40.0282C38.561 39.7828 38.561 39.4147 38.561 38.9238C38.3415 38.9729 38.1464 39.022 37.9756 39.0711C37.8049 39.1447 37.6342 39.1938 37.4634 39.2674C37.3171 39.3165 37.1464 39.3901 37 39.4637C36.8537 39.5374 36.683 39.5865 36.5122 39.6355L36.1464 39.7092C36 39.7337 35.8781 39.7582 35.7317 39.7828C35.5854 39.7828 35.4391 39.7828 35.2683 39.7828L35.1708 39.881C35.1708 40.0773 35.1708 40.3473 35.0732 40.6908C35 41.0344 34.9756 41.378 35.0488 41.6971C35.0732 41.9425 35.0976 42.2861 35.0732 42.7278C35.0732 43.1696 35.0732 43.5132 35.0976 43.7832C35.1464 44.2004 34.9756 44.5194 34.5366 44.6912C34.0976 44.863 33.5366 44.7403 32.8781 44.2985C32.7805 44.2495 32.7317 44.2004 32.683 44.1267C32.6342 44.0531 32.5854 43.955 32.5366 43.8568V41.5744C32.5854 41.2799 32.6098 41.0099 32.6098 40.7645C32.6098 40.5191 32.6342 40.2736 32.683 40.0282C32.7561 39.5619 32.8293 39.0956 32.8781 38.5557C32.9269 38.0403 33.0244 37.6231 33.1464 37.2795C33.1464 37.2059 33.1952 37.0586 33.2195 36.9114C33.2439 36.7641 33.2683 36.5678 33.2927 36.396C33.3171 36.2242 33.3415 36.0278 33.3659 35.8806C33.3903 35.7088 33.4147 35.5861 33.4391 35.4879C33.4878 35.2916 33.5366 34.9725 33.5854 34.5799C33.6342 34.1872 33.683 33.7945 33.7561 33.4509C33.8049 33.1073 33.8293 32.911 33.8293 32.8865C33.8293 32.6656 33.9269 32.4938 34.0976 32.3956C34.2683 32.2974 34.3903 32.2238 34.5122 32.2238C35.122 32.1011 35.5854 32.1993 35.8781 32.4692C36.1708 32.7637 36.3415 33.0337 36.3659 33.3037C36.3659 33.4264 36.3659 33.5245 36.3903 33.6227C36.4147 33.7209 36.3903 33.7945 36.3903 33.8681L35.7074 37.3531V37.5004C35.8781 37.4758 36.0488 37.4022 36.2439 37.3286C36.4391 37.2304 36.6342 37.1813 36.8293 37.1322C36.9269 37.0832 37.0732 37.0586 37.2683 36.985C37.4634 36.9359 37.683 36.8623 37.9513 36.8132C38.2195 36.7641 38.4878 36.7396 38.7561 36.7396C38.9025 36.1015 38.9756 35.537 39.0488 35.0707C39.0976 34.6044 39.2195 34.089 39.4391 33.4755C39.4391 33.4264 39.4635 33.2791 39.4878 33.0337C39.5122 32.7883 39.5854 32.5183 39.683 32.2729L39.5854 32.2974Z" fill="#635959" stroke="#635959" stroke-width="0.25"/>
<path d="M50.6098 41.3292C50.3659 41.231 50.1464 41.1329 49.9025 41.0347C49.7561 40.4457 49.6586 39.8321 49.6586 39.2186C49.6586 38.605 49.6586 37.9915 49.7317 37.3779L49.5366 37.6479C49.5366 37.6479 49.4147 37.8442 49.3171 37.9178C49.2439 38.016 49.1464 38.1142 49.0488 38.2123C48.9512 38.3105 48.8781 38.4087 48.7805 38.5068C48.7073 38.5805 48.4878 38.7768 48.1708 39.0713C47.8537 39.3658 47.4878 39.7094 47.0976 40.053C46.7073 40.3966 46.3659 40.7156 46.0488 40.9856C45.7317 41.2556 45.561 41.4028 45.5366 41.4028C45.0488 41.4519 44.6586 41.3046 44.3903 40.9365C44.122 40.5684 43.9025 40.2003 43.7073 39.8321C43.8293 39.5376 43.9756 39.2677 44.1464 39.0468C44.3171 38.8259 44.561 38.6541 44.8537 38.5314C45.0976 38.3841 45.3903 38.1878 45.7073 37.9424C46.0244 37.697 46.3415 37.427 46.6342 37.1325C46.9269 36.838 47.1951 36.5926 47.3903 36.3962C47.2195 36.3962 47.0732 36.3471 46.9268 36.2981C46.7805 36.249 46.6342 36.1508 46.4878 36.0281C46.0488 35.709 45.7073 35.2918 45.4634 34.7274C45.2195 34.1874 45.122 33.6966 45.1951 33.2303C45.1951 33.1076 45.2439 32.9849 45.2683 32.8376C45.2927 32.7149 45.3171 32.5677 45.3171 32.4449C45.3659 32.1504 45.4147 31.905 45.4878 31.6596C45.561 31.4142 45.6586 31.2178 45.7561 31.046C45.9756 30.7025 46.2195 30.4325 46.5366 30.2116C46.8537 29.9907 47.1708 29.8189 47.5366 29.6962C47.5854 29.6717 47.6586 29.6471 47.7073 29.6471C47.7561 29.6471 47.8293 29.6226 47.8781 29.5735C48.1464 29.4753 48.4147 29.4017 48.6829 29.3526C48.9512 29.279 49.2195 29.2299 49.4878 29.1808C49.7073 29.1808 49.9268 29.1318 50.1464 29.0827L50.7561 28.96C51.2195 29.0827 51.6098 29.279 51.9025 29.4999C52.1951 29.7208 52.3903 30.0889 52.4878 30.6043C52.6098 31.1933 52.6586 31.8314 52.6586 32.5186C52.6586 33.2057 52.6342 33.8929 52.561 34.6292C52.4878 35.3409 52.439 36.0772 52.3659 36.7889C52.2927 37.5006 52.2439 38.2123 52.1951 38.875C52.1951 39.0713 52.1951 39.2922 52.1951 39.4885C52.1951 39.6849 52.1951 39.9057 52.1951 40.1021C52.1951 40.4457 52.1464 40.7647 52.0244 41.0592C51.9025 41.3537 51.6342 41.5255 51.2683 41.5746C51.0244 41.4764 50.8049 41.3783 50.561 41.2801L50.6098 41.3292ZM49.4147 31.586C49.1464 31.586 48.9268 31.6596 48.7805 31.7578C48.5854 31.905 48.3903 32.1259 48.1464 32.4695C47.9268 32.8131 47.8049 33.1567 47.7561 33.4757C47.7073 33.7948 47.8781 34.0647 48.2439 34.212C48.3903 34.2611 48.5366 34.3101 48.6829 34.3592C48.8293 34.4083 48.9756 34.4819 49.1464 34.531C49.2927 34.5556 49.439 34.6046 49.561 34.6292C49.7073 34.6537 49.8293 34.7274 49.9756 34.801C50 34.531 50.0244 34.2611 50.0488 33.9911C50.0488 33.7211 50.0976 33.4512 50.122 33.1812C50.122 32.9849 50.1464 32.7885 50.1708 32.5922C50.1708 32.3959 50.1708 32.1995 50.1708 32.0032C50.1708 31.8068 50.1464 31.6105 50.0976 31.4387C49.9025 31.4878 49.6829 31.5369 49.4147 31.5369V31.586Z" fill="#635959" stroke="#635959" stroke-width="0.25"/>
<path d="M57.122 38.9239C57.122 38.9239 56.9025 38.7766 56.683 38.703C56.4634 38.6294 56.3659 38.5557 56.3415 38.4576C56.3415 38.4085 56.3415 38.3594 56.2927 38.3103C56.2927 38.2612 56.2195 38.2367 56.1464 38.2612C56.0732 38.2121 56.0732 37.9913 56.1464 37.5986C56.1951 37.2059 56.2927 36.7396 56.4147 36.1997C56.5366 35.6598 56.683 35.1198 56.8537 34.6044C57.0244 34.0891 57.1464 33.6718 57.2683 33.3528C57.3415 33.2792 57.3903 33.181 57.4147 33.0828C57.4147 32.9601 57.4147 32.911 57.3659 32.9356C57.5122 32.5184 57.6098 32.2975 57.6586 32.2239C57.7561 31.9294 57.8293 31.6349 57.8537 31.3403C57.8537 31.0458 57.8537 30.8004 57.7805 30.6286C57.683 30.555 57.561 30.555 57.3659 30.6777C57.2927 30.7022 57.1951 30.7759 57.0488 30.8495C56.9025 30.9231 56.8049 31.0213 56.7073 31.1195C56.3171 31.5121 56.0244 31.733 55.8293 31.7576C55.6342 31.7821 55.3903 31.6103 55.0976 31.1685C54.9756 30.9722 54.9025 30.7759 54.9025 30.5795C54.9025 30.3832 54.9269 30.2114 55.0488 30.0642C55.1708 29.8924 55.3415 29.7206 55.5366 29.5242C55.7317 29.3279 55.8781 29.2052 55.9512 29.1316C56.1464 28.9598 56.4147 28.7634 56.7561 28.518C57.0976 28.2726 57.3171 28.1499 57.3903 28.1253C57.8537 27.8799 58.2683 27.7817 58.6586 27.8799C59.0244 27.9535 59.3415 28.1744 59.5854 28.5671C59.9269 28.837 60.122 29.1561 60.1951 29.5242C60.2683 29.8924 60.1952 30.3587 60.0488 30.9722L59.8537 31.4631C59.8049 31.6839 59.8049 31.7821 59.8537 31.7576C59.9025 31.733 60 31.6594 60.0488 31.5121C60.0976 31.414 60.1951 31.2913 60.3171 31.0949C60.4634 30.8986 60.561 30.8004 60.6098 30.8004C60.7073 30.7513 60.7317 30.6532 60.7073 30.5059C60.7561 30.4323 60.8293 30.3341 60.9512 30.1869C61.0244 30.1869 61.122 30.1132 61.2195 29.9905C61.3171 29.8678 61.5122 29.6715 61.7805 29.3524C61.9512 29.1561 62.1464 29.0334 62.3171 29.0088C62.7317 28.788 63.122 28.8616 63.4878 29.2297C63.8537 29.5979 64.0976 30.1132 64.2195 30.8004L63.9025 32.4693L64.7073 30.9968C64.8049 30.825 64.8781 30.6532 65 30.5305C65.0976 30.3832 65.1952 30.285 65.2683 30.1869C65.2683 30.0396 65.3659 29.9414 65.5122 29.8678C65.5854 29.8433 65.6098 29.7942 65.6098 29.7206C65.683 29.6224 65.7805 29.5242 65.8781 29.4506C65.9756 29.3524 66.0488 29.2788 66.0732 29.1806C66.3659 28.9843 66.7561 28.8861 67.2439 28.8861C67.7317 28.8861 68.0976 29.0579 68.3659 29.4261C68.5366 29.6224 68.7073 29.8187 68.8537 29.966C69 30.1132 69.0976 30.3587 69.1708 30.7022C69.1708 30.9968 69.1708 31.2176 69.1708 31.3403C69.1708 31.4631 69.1708 31.5858 69.1708 31.7085C69.1708 31.8312 69.1708 32.0521 69.1952 32.3711C69.1464 32.5429 69.1464 32.7147 69.1708 32.8865C69.1708 33.0583 69.2195 33.2301 69.2439 33.3773C69.2927 33.6228 69.3415 33.7946 69.3659 33.8682C69.3903 33.9418 69.4878 33.9909 69.6098 33.9664C69.8781 33.8682 70.0732 33.7209 70.2439 33.5737C70.4147 33.4019 70.5854 33.2055 70.7561 32.9601C71 32.6411 71.2439 32.5429 71.4878 32.6902C71.7317 32.8374 71.9269 33.0092 72.0244 33.2301C72.0732 33.3037 72.0732 33.4755 72.0244 33.77C71.9513 34.0645 71.8781 34.359 71.7805 34.629C71.683 34.899 71.561 35.0462 71.4878 35.0707C71.4391 35.0707 71.3415 35.1935 71.1952 35.3653C71.0488 35.5616 70.9269 35.6843 70.8537 35.7579C70.7561 35.9297 70.6342 36.077 70.5366 36.1997C70.4391 36.3469 70.2927 36.4206 70.1464 36.4451C70.0732 36.4451 69.9756 36.4942 69.8781 36.5678C69.7805 36.6414 69.6586 36.6905 69.5366 36.7151C69.3659 36.8132 69.0488 36.8378 68.6342 36.7887C68.2195 36.7396 67.9025 36.5187 67.7317 36.1261C67.6098 35.9297 67.4634 35.6843 67.2439 35.3898C67.0488 35.0953 66.9269 34.7026 66.9025 34.1872C66.9025 33.8191 66.9025 33.5001 66.8781 33.2055C66.8537 32.911 66.8537 32.7147 66.8781 32.5675L66.8049 32.1502C66.7561 31.9294 66.7073 31.8312 66.6586 31.8312C66.5854 31.8312 66.4634 31.9784 66.2927 32.1993C66.122 32.4447 65.9269 32.7392 65.683 33.1074C65.4391 33.4755 65.2195 33.8682 65 34.3099C64.7805 34.7272 64.5854 35.1444 64.4147 35.5616C64.2927 35.807 64.1708 36.1015 64.0976 36.4206C64.0244 36.7396 63.9512 36.9359 63.9025 36.985C63.8049 37.1568 63.5854 37.2305 63.2439 37.1814C62.9025 37.1323 62.6342 36.985 62.4391 36.7642C62.3659 36.666 62.2683 36.5924 62.1951 36.5924C62.122 36.5924 62.0488 36.5433 61.9756 36.4451C61.9025 36.3715 61.8781 36.1997 61.8781 35.9052C61.8781 35.6352 61.9025 35.1689 62 34.5308C62.0976 33.8436 62.1951 32.9356 62.3171 31.8066C62.3171 31.733 62.1708 31.8066 61.9269 32.1012C61.683 32.3711 61.3903 32.7147 61.0732 33.1074C60.9512 33.3528 60.7561 33.6718 60.561 34.04C60.3415 34.4081 60.0976 34.8744 59.8293 35.3898C59.561 35.9052 59.2683 36.4942 58.9269 37.1814C58.5122 38.0894 58.1951 38.6294 57.9512 38.8748C57.7073 39.0957 57.4634 39.0957 57.1952 38.8748L57.122 38.9239Z" fill="#635959" stroke="#635959" stroke-width="0.25"/>
<path d="M76.1219 36.396C75.6829 36.4451 75.317 36.4697 75.0731 36.5188C74.8292 36.5678 74.6097 36.5188 74.4146 36.4697C74.2195 36.4206 74 36.2979 73.7317 36.1261C73.439 35.9297 73.1951 35.6598 73.0243 35.3653C72.8536 35.0708 72.7317 34.7026 72.6341 34.2609C72.5122 33.5982 72.4878 32.862 72.5609 32.003C72.6341 31.144 72.7561 30.2851 72.9024 29.4261C73.0731 28.5671 73.2195 27.7818 73.3902 27.07C73.5365 26.3583 73.6585 25.8675 73.7073 25.5239C73.6585 25.2048 73.7561 25.0085 74.0243 24.8858C74.2926 24.7631 74.6097 24.6895 74.9512 24.6895C75.2926 24.6895 75.5365 24.7385 75.6585 24.8612C75.8048 24.984 75.9268 25.1067 76.0731 25.2294C76.2195 25.3521 76.2926 25.5239 76.3658 25.7448C76.4634 26.0147 76.4634 26.3092 76.3658 26.5792C76.2682 26.8492 76.1707 27.0946 76.0731 27.2664C75.878 27.6345 75.7073 28.0763 75.5365 28.6407C75.3658 29.2052 75.2195 29.7942 75.0731 30.4323C74.9268 31.0459 74.8292 31.6594 74.8048 32.1993C74.7561 32.7638 74.7561 33.2056 74.8048 33.5492C74.8536 33.8927 75 34.0891 75.1951 34.1136C75.6585 34.1382 76.1219 34.0645 76.6097 33.8437C77.0975 33.6228 77.5122 33.3528 77.8536 32.9847C78.2195 32.6166 78.4634 32.2484 78.6097 31.8312C78.7073 31.5367 78.7317 31.2667 78.6829 31.0459C78.6341 30.825 78.4146 30.7514 78 30.8004C77.7317 30.825 77.439 30.8986 77.1463 30.9968C76.8536 31.0949 76.4878 31.1931 76.0487 31.3158C75.8536 31.1931 75.6585 31.0213 75.439 30.8004C75.2195 30.5796 75 30.4569 74.8536 30.4078C74.8536 29.8924 75 29.4752 75.317 29.1807C75.6585 28.8862 76 28.6653 76.4146 28.5426C76.8048 28.4199 77.0731 28.3462 77.2439 28.3462C77.6341 28.3462 78.0731 28.3953 78.5365 28.518C79 28.6407 79.439 28.8371 79.8048 29.107C80.0244 29.2788 80.1951 29.4506 80.3658 29.647C80.5365 29.8433 80.6585 30.0887 80.7561 30.3587C80.9268 30.8495 81 31.3404 80.9756 31.8067C80.9512 32.2975 80.8292 32.7147 80.6585 33.1074C80.3902 33.6719 79.9268 34.1873 79.2683 34.7026C78.6097 35.218 77.9024 35.7089 77.1463 36.1752C76.9512 36.1997 76.8048 36.2242 76.6829 36.1997C76.5609 36.1997 76.3902 36.2243 76.1951 36.347L76.1219 36.396Z" fill="#635959" stroke="#635959" stroke-width="0.25"/>
<path d="M86.6829 34.531C86.1463 34.7274 85.5853 34.801 85 34.7028C84.4146 34.6047 83.9024 34.3838 83.4634 34.0156C83.0244 33.6475 82.7561 33.1567 82.6341 32.5431C82.4634 31.9787 82.3902 31.2669 82.4146 30.4325C82.4146 29.5981 82.5122 28.7391 82.7073 27.8801C82.878 26.9966 83.1463 26.2603 83.4878 25.5977C83.7805 25.0578 84.0975 24.5669 84.3902 24.1006C84.6829 23.6343 85 23.3153 85.2683 23.1189C85.5122 22.9472 85.8292 22.7999 86.2195 22.6526C86.6097 22.5054 86.878 22.4318 87.0244 22.4072C87.3414 22.4072 87.7073 22.4809 88.1219 22.579C88.5366 22.6772 88.7561 22.849 88.8048 23.0699L88.9756 23.1926C88.9756 23.1926 89.2439 23.2907 89.439 23.5362C89.6341 23.7816 89.8049 24.0761 89.9512 24.4197C90.0975 24.7633 90.1219 25.0578 90.0487 25.2787C90.0487 25.6713 89.9512 26.0395 89.8048 26.4321C89.6585 26.8248 89.4878 27.0211 89.3414 27.0702C89.2683 27.0702 89.1951 27.0948 89.1219 27.1193C89.0488 27.1193 89.0244 27.1929 89.0487 27.2911C89.0731 27.3893 88.9756 27.4629 88.7805 27.4874C88.5853 27.512 88.3658 27.5365 88.1463 27.4874C87.9268 27.4629 87.7561 27.3647 87.6829 27.2175C87.6829 27.1193 87.6829 26.9966 87.6829 26.8248C87.6829 26.653 87.6829 26.3831 87.7073 26.0149C87.7073 25.4505 87.6585 25.0823 87.5366 24.9351C87.4146 24.7878 87.1707 24.8124 86.8048 25.0332C86.3658 25.4014 86.0488 25.794 85.8048 26.1867C85.5609 26.5794 85.3902 27.1439 85.2683 27.831C85.1463 28.5182 85.0488 29.4508 84.9756 30.6534C84.9512 31.1197 84.9756 31.4633 85.1219 31.7087C85.2683 31.9541 85.3414 32.0768 85.4146 32.0768C85.7073 32.1014 86 32.0768 86.2927 31.9541C86.6097 31.8559 86.8536 31.7087 87.0487 31.5614C87.317 31.3406 87.561 31.1197 87.7805 30.8988C88 30.6779 88.2195 30.4325 88.4634 30.1625C88.5366 30.0889 88.6097 29.9662 88.6585 29.7699C88.7073 29.5981 88.8048 29.4508 88.9268 29.3526C89.0487 29.0827 89.2195 28.9354 89.439 28.8863C89.6829 28.8373 89.9024 28.7882 90.1463 28.7391C90.317 28.7391 90.4878 28.8127 90.6829 28.9354C90.878 29.0581 91.0487 29.1809 91.1463 29.3036C91.2683 29.4263 91.2683 29.5244 91.1463 29.6226C91.0731 29.6226 91.0244 29.6962 91.0244 29.7944C91.0731 29.868 91.0244 30.0644 90.878 30.3589C90.7317 30.6534 90.5366 30.997 90.2683 31.3651C90.0244 31.7332 89.7805 32.0523 89.5366 32.3222C89.2927 32.5922 89.1219 32.7395 89 32.764C88.8049 32.7885 88.7317 32.8867 88.7561 32.9849C88.7561 33.034 88.6341 33.1567 88.3902 33.353C88.1463 33.5494 87.8536 33.7702 87.5366 33.9911C87.2195 34.212 86.9268 34.3838 86.6585 34.482L86.6829 34.531Z" fill="#635959" stroke="#635959" stroke-width="0.25"/>
<path d="M99.9513 20.272C100.293 20.2229 100.585 20.3456 100.902 20.6401C101.195 20.9346 101.439 21.18 101.634 21.4009C101.683 21.6218 101.683 21.9163 101.683 22.2844C101.683 22.6525 101.683 23.0207 101.659 23.3888C101.634 23.7569 101.585 24.0514 101.537 24.2478C101.659 24.665 101.683 25.1313 101.585 25.6712C101.488 26.2111 101.415 26.7511 101.317 27.3155C101.244 27.8309 101.22 28.3218 101.22 28.8126C101.22 29.3035 101.317 29.7698 101.512 30.187C101.439 30.2851 101.342 30.4079 101.244 30.5796C101.146 30.7269 101.024 30.8496 100.902 30.9232C100.585 31.1687 100.268 31.2177 99.9269 31.1196C99.5854 30.9969 99.2927 30.8005 99.0732 30.4815C98.8293 30.187 98.7074 29.8434 98.7074 29.4998C98.7074 29.2789 98.7074 28.9353 98.7318 28.4445C98.7318 27.9536 98.7805 27.4137 98.8293 26.8247C98.8781 26.2357 98.9269 25.6221 98.9513 25.0086C98.9757 24.395 99.0244 23.8551 99.0488 23.3643C99.0732 22.8734 99.0732 22.5298 99.0488 22.3089C99.0488 22.2599 98.9757 22.2353 98.8781 22.2353C98.7805 22.2353 98.6342 22.1862 98.4635 22.1862C98.2927 22.1862 98.1464 22.1617 98.0001 22.1372C97.4635 22.358 97.0245 22.6771 96.7074 23.0943C96.3659 23.5115 96.1464 23.9287 95.9757 24.3214C95.8293 24.7386 95.7318 25.0577 95.7318 25.2785C95.7318 25.4013 95.7318 25.4994 95.7561 25.5976C95.7805 25.6958 95.8293 25.7694 95.9025 25.843C96.244 26.1375 96.5123 26.3339 96.7318 26.4075C96.9513 26.4811 97.122 26.5302 97.2927 26.5302C97.4635 26.5302 97.6098 26.5302 97.7562 26.5793C97.9025 26.6284 98.0976 26.6284 98.3659 26.6284C98.6342 26.6284 98.9025 26.6284 99.1464 26.6284C99.3903 26.6284 99.561 26.6284 99.6586 26.6284C99.9025 26.7265 99.9513 26.9229 99.8049 27.2174C99.6342 27.5119 99.4391 27.7818 99.2196 28.0273C98.8049 28.4445 98.3415 28.9108 97.8537 29.4016C97.3415 29.917 96.8781 30.4079 96.4147 30.9232C96.2927 31.0459 96.1952 31.1687 96.0732 31.2914C95.9757 31.4141 95.8537 31.5368 95.7805 31.6595C95.6586 31.7822 95.561 31.9049 95.4391 32.0276C95.3415 32.1503 95.244 32.2731 95.1464 32.3958C95.0244 32.543 94.9269 32.6657 94.8293 32.813C94.7318 32.9357 94.561 32.9602 94.3171 32.8621C93.8781 32.9111 93.5366 32.7394 93.2927 32.3958C93.0488 32.0522 92.8293 31.684 92.683 31.3159C92.8781 30.9478 93.1464 30.5796 93.4635 30.187C93.8049 29.7943 94.1464 29.4016 94.5123 29.0335C94.8781 28.6654 95.1952 28.3463 95.4879 28.0763C95.0001 27.9046 94.6098 27.7082 94.2927 27.4628C93.9757 27.2174 93.7805 26.8247 93.683 26.2848C93.6342 26.0148 93.6098 25.7203 93.6342 25.3767C93.6342 25.0331 93.7074 24.7141 93.7805 24.395C93.8537 24.076 93.9757 23.806 94.0976 23.5606C94.122 23.5115 94.1464 23.487 94.1464 23.487C94.1464 23.487 94.1464 23.4624 94.1464 23.4133C94.2683 22.947 94.4635 22.5298 94.7318 22.1372C94.9757 21.7445 95.2927 21.4254 95.6586 21.1555C95.8049 21.0573 95.9513 20.9591 96.0976 20.861C96.2684 20.7628 96.4147 20.6892 96.5854 20.6401C96.7805 20.5665 97.0488 20.4928 97.3903 20.4192C97.7318 20.3456 98.0488 20.2965 98.3903 20.2474C98.7318 20.2229 99.0001 20.2229 99.1708 20.2474C99.2927 20.2474 99.4391 20.2965 99.5854 20.3456C99.7318 20.3947 99.8537 20.3947 99.9757 20.3456L99.9513 20.272Z" fill="#635959" stroke="#635959" stroke-width="0.25"/>
</g>
<defs>
<clipPath id="clip0_151_527">
<rect width="102" height="52.5692" fill="white"/>
</clipPath>
</defs>
</svg>
