<svg width="74" height="38" viewBox="0 0 74 38" fill="none" xmlns="http://www.w3.org/2000/svg">
<g clip-path="url(#clip0_151_198)">
<path d="M17.2781 23.6128C17.0136 23.6483 16.8197 23.6128 16.6963 23.4708C16.5729 23.3289 16.5023 23.1693 16.4847 22.9564C16.4671 22.7435 16.4495 22.5483 16.4847 22.3532C16.52 22.1403 16.5376 21.9452 16.5552 21.75C16.5729 21.5371 16.6081 21.342 16.6434 21.1469C16.6786 20.9517 16.6963 20.7566 16.7139 20.5437L16.855 18.8761C16.8197 18.7164 16.8197 18.5568 16.8726 18.3971C16.9255 18.2374 16.9784 18.0955 17.0313 17.9713L18.618 17.4391C18.7591 17.3681 18.953 17.2262 19.1646 17.0133C19.3761 16.7827 19.6053 16.5166 19.8345 16.215C20.0637 15.8957 20.2577 15.5941 20.434 15.257C20.8042 14.5652 21.1216 13.891 21.3684 13.2346C21.6152 12.5782 21.8268 11.9218 21.9855 11.2477C22.1441 10.5736 22.3028 9.8462 22.4615 9.06562C22.6025 8.28504 22.7789 7.41576 22.9552 6.44004C22.9904 6.29811 23.0257 6.13845 23.0433 5.99653C23.0609 5.8546 23.0962 5.69494 23.1315 5.55302C23.0786 5.55302 23.0081 5.55302 22.9199 5.55302C22.8317 5.55302 22.7789 5.55302 22.7789 5.55302C22.4615 5.46431 22.2323 5.26917 22.056 4.98532C21.8797 4.70148 21.8268 4.39989 21.8621 4.11604C21.8621 4.0096 21.9326 3.9209 22.0736 3.90316C22.2147 3.86768 22.3733 3.84994 22.5497 3.8322C22.726 3.81445 22.8846 3.77897 23.0257 3.74349C23.4136 3.61931 23.7133 3.53061 23.9601 3.45965C24.2069 3.38868 24.4009 3.33546 24.5595 3.28224C24.7182 3.22902 24.8416 3.19354 24.9298 3.14032C25.5116 2.99839 26.0229 2.89195 26.4813 2.78551C26.9221 2.69681 27.3628 2.60811 27.786 2.5194C28.2091 2.44844 28.6675 2.35974 29.1611 2.30652C29.4432 2.27104 29.7253 2.30652 30.0074 2.46618C30.2895 2.60811 30.4834 2.80325 30.5716 3.03388C30.6069 3.22902 30.6069 3.56609 30.5716 4.06282C30.5363 4.55955 30.4658 5.12725 30.36 5.78364C30.2542 6.44004 30.1485 7.13192 30.0074 7.84153C29.8664 8.56889 29.7253 9.26077 29.5666 9.95264C29.408 10.6445 29.2669 11.2477 29.1083 11.7622C29.0377 12.046 28.9848 12.3121 28.9319 12.596C28.8791 12.8621 28.7909 13.1991 28.6851 13.6072C28.6499 13.8023 28.597 14.0152 28.5088 14.2636C28.4207 14.5119 28.3678 14.778 28.3325 15.0619C28.3149 15.2215 28.3325 15.3103 28.403 15.328C28.4736 15.328 28.5617 15.328 28.7027 15.257C28.8438 15.2038 28.9848 15.1328 29.1611 15.0619C29.3375 14.9909 29.4785 14.9554 29.6195 14.92C29.6901 14.9022 29.7606 14.8845 29.8135 14.8667C29.8664 14.849 29.9369 14.8667 29.9898 14.8845C30.3071 14.9377 30.554 15.0796 30.7303 15.2925C30.9066 15.5054 31.0124 15.736 31.03 15.9844C31.0653 16.4634 31.03 16.9956 30.9066 17.5988C30.7832 18.1842 30.6245 18.7696 30.4306 19.3373C30.2366 19.905 30.0603 20.4195 29.884 20.863C29.884 20.9517 29.8487 21.0404 29.8135 21.1291C29.7782 21.2178 29.7606 21.3065 29.7253 21.413C29.7077 21.5017 29.6724 21.6081 29.6372 21.6968C29.549 21.821 29.408 21.892 29.2669 21.9097C29.1083 21.9097 28.9319 21.8742 28.738 21.75C28.5441 21.6258 28.3325 21.4307 28.1033 21.1823C28.0152 20.9872 27.9975 20.792 28.0152 20.5792C28.0328 20.3663 28.1033 20.0824 28.2444 19.7631C28.4207 19.2664 28.597 18.7874 28.7733 18.3439C28.9496 17.9004 29.0554 17.5101 29.1259 17.1907L29.1611 16.9069C28.9319 16.9424 28.7204 16.9956 28.4912 17.0488C28.262 17.102 28.0328 17.1553 27.786 17.2262C27.5391 17.2794 27.3099 17.3504 27.0631 17.4036C26.8163 17.4568 26.5871 17.5101 26.3579 17.581C26.305 17.5633 26.2697 17.5455 26.2345 17.581C26.1992 17.581 26.1287 17.6165 26.0229 17.6697L24.7006 17.8826L24.4538 17.9181C24.4538 17.9181 24.3303 17.9358 24.2775 17.9713C23.9601 18.0955 23.7309 18.1665 23.5722 18.1665C23.4136 18.1665 23.202 18.2019 22.9552 18.2906C22.726 18.3439 22.5144 18.3793 22.2852 18.4503C22.056 18.5213 21.8268 18.5568 21.5976 18.61C21.3684 18.6632 21.1392 18.7164 20.91 18.7696C20.6808 18.8229 20.4516 18.8761 20.2224 18.9293C19.9932 18.9825 19.764 19.0357 19.5348 19.089C19.3761 19.1244 19.2351 19.1599 19.0764 19.2131C18.9177 19.2486 18.7767 19.3018 18.618 19.3551C18.5475 19.8518 18.477 20.384 18.4065 20.934C18.3536 21.5017 18.3007 21.9807 18.2654 22.3887C18.2301 22.7967 18.1949 23.0273 18.1949 23.0628C18.1949 23.2047 18.142 23.3289 18.0362 23.4531C17.9304 23.5596 17.666 23.6483 17.2252 23.7192L17.2781 23.6128ZM21.1745 16.8537C21.4037 16.8004 21.7386 16.7472 22.1794 16.6585C22.6025 16.5698 23.0609 16.4811 23.5546 16.3747C24.0306 16.2682 24.5067 16.1618 24.9474 16.0554C25.3882 15.9489 25.7584 15.8602 26.0582 15.807C26.3579 15.736 26.5165 15.7005 26.5342 15.6828C26.5871 15.0264 26.64 14.5474 26.6752 14.2281C26.7105 13.9088 26.7634 13.6427 26.7986 13.4298C26.8515 13.2169 26.9221 12.9508 27.0278 12.6137C27.0984 12.3476 27.1513 12.0815 27.2041 11.8331C27.257 11.567 27.3276 11.3187 27.3804 11.0526C27.4333 10.7864 27.5039 10.5381 27.5568 10.272C27.6096 10.0059 27.6802 9.7575 27.7331 9.49139C27.786 9.22529 27.8565 8.97692 27.9094 8.71081C28.1033 7.66413 28.2796 6.77711 28.4383 6.03201C28.5793 5.28691 28.6851 4.68374 28.7204 4.20474C28.4383 4.22248 28.1209 4.27571 27.7683 4.32893C27.4157 4.39989 27.0631 4.47085 26.7105 4.54181C26.3579 4.63051 26.0405 4.71922 25.7584 4.80792C25.4763 4.89662 25.2648 5.00306 25.1061 5.09177L24.9651 5.90782C24.9651 5.90782 24.9122 6.22715 24.824 6.63518C24.7359 7.04321 24.5948 7.57543 24.4361 8.21408C24.2775 8.85274 24.0835 9.56235 23.8367 10.3429C23.6075 11.1235 23.3607 11.9041 23.0786 12.7024C22.8141 13.5007 22.5144 14.2636 22.197 14.9732C21.8797 15.7005 21.5447 16.3215 21.1921 16.8359L21.1745 16.8537Z" fill="#F1E4D4" stroke="#F1E4D4" stroke-width="0.25"/>
<path d="M33.4806 16.4453C33.4101 16.3388 33.269 16.2501 33.0751 16.1614C32.8635 16.0727 32.7577 16.0017 32.7577 15.9485C32.7577 15.8953 32.7048 15.8066 32.6343 15.7002C32.5638 15.5937 32.4756 15.505 32.4228 15.4518C32.3346 15.3808 32.3346 15.1679 32.4051 14.8131C32.4756 14.4761 32.5814 14.0326 32.7401 13.5358C32.8988 13.0214 33.0751 12.5069 33.2867 11.9747C33.3748 11.8505 33.4806 11.6908 33.5687 11.4779C33.6569 11.2828 33.7274 11.1409 33.7803 11.0876C33.7803 11.0344 33.7803 10.9812 33.8156 10.928C33.8508 10.8748 33.9037 10.8393 33.9566 10.8393L34.08 10.4845C34.08 10.4845 34.1682 10.3071 34.2916 10.1119C34.415 9.91678 34.5737 9.7039 34.75 9.47327C34.9263 9.24264 35.1202 9.01202 35.3142 8.79913C35.5081 8.58625 35.6668 8.42659 35.7902 8.32014C36.0547 8.08952 36.3544 7.94759 36.6717 7.92985C36.9891 7.89437 37.2712 7.96533 37.518 8.125C37.5709 8.16048 37.6767 8.23144 37.8354 8.33788C37.994 8.44432 38.188 8.56851 38.3995 8.69269C38.6111 8.81687 38.7874 8.94106 38.9461 9.0475L39.81 9.63293L39.5984 10.7328C39.4926 11.3183 39.5103 11.815 39.6513 12.223C39.7924 12.6311 39.9687 12.9859 40.1979 13.2697C40.286 13.4116 40.3918 13.5181 40.5328 13.589C40.6563 13.66 40.8326 13.6955 41.0265 13.6955C41.1323 13.6955 41.2557 13.731 41.3615 13.7842C41.4673 13.8374 41.5378 13.9439 41.5554 14.1035C41.6083 14.4406 41.5554 14.689 41.4673 14.8486C41.3615 15.0083 41.2557 15.1147 41.1147 15.1679C40.6563 15.2921 40.2155 15.2921 39.7747 15.2034C39.334 15.097 38.9108 14.7599 38.4877 14.1567C38.4172 14.0858 38.329 13.9261 38.2056 13.7132C38.0822 13.5003 38.0117 13.3584 37.994 13.2875C37.9411 13.3584 37.8883 13.4649 37.8177 13.589C37.7472 13.7132 37.6591 13.8197 37.5885 13.9084C36.7246 15.0615 35.9665 15.8243 35.2965 16.2324C34.6266 16.6227 34.0448 16.7114 33.5159 16.463L33.4806 16.4453ZM34.8382 14.3164C35.0321 14.1745 35.2789 13.9261 35.5963 13.6068C36.0194 13.1278 36.3544 12.7375 36.6365 12.4359C36.9009 12.1343 37.1654 11.744 37.3946 11.2828L37.7472 10.4667C37.5709 10.1651 37.4122 9.97 37.2888 9.8813C37.1654 9.7926 37.042 9.75712 36.9362 9.77486C36.7599 9.7926 36.5483 9.95226 36.3368 10.2184C36.1252 10.4845 35.8784 10.857 35.6139 11.3538C35.3494 11.8327 35.085 12.4359 34.7676 13.1455C34.6266 13.4826 34.5032 13.9439 34.3798 14.547C34.4855 14.547 34.6266 14.4761 34.8205 14.3341L34.8382 14.3164Z" fill="#F1E4D4" stroke="#F1E4D4" stroke-width="0.25"/>
<path d="M44.5175 15.6824C44.2178 15.7357 43.9004 15.7179 43.5831 15.647C43.2657 15.576 43.0012 15.3809 42.772 15.0615C42.5957 14.8132 42.4547 14.5293 42.3665 14.2277C42.2784 13.9261 42.2255 13.6246 42.2431 13.3407C42.296 12.3827 42.3313 11.6908 42.4018 11.2651C42.4547 10.8216 42.49 10.5732 42.49 10.52C42.5076 10.4668 42.5428 10.3248 42.5781 10.1297C42.6134 9.91681 42.6663 9.7394 42.7368 9.59748C42.772 9.38459 42.772 9.13623 42.7015 8.85238C42.6663 8.74594 42.6663 8.60402 42.7015 8.44435C42.7368 8.28469 42.7897 8.1605 42.8602 8.0718C43.0718 7.85892 43.2304 7.59281 43.3362 7.27348C43.3715 7.16704 43.4067 7.00738 43.4773 6.79449C43.5478 6.58161 43.6359 6.35098 43.7241 6.12035C43.8123 5.88973 43.8828 5.69458 43.9357 5.55266C44.1296 5.23333 44.3059 4.87852 44.4998 4.47049C44.6938 4.06246 44.9054 3.70766 45.1698 3.38833C45.3109 3.05126 45.5048 2.74967 45.734 2.46583C45.9808 2.18198 46.21 1.91587 46.4568 1.66751C46.7037 1.41914 46.8976 1.18852 47.0387 0.993371C47.1268 0.851447 47.3384 0.727264 47.6734 0.603081C48.0083 0.478898 48.2552 0.390196 48.4491 0.301494C48.6607 0.195051 48.9251 0.212792 49.2249 0.319234C49.5246 0.443417 49.7361 0.54986 49.8419 0.674043C50.1064 1.01111 50.2651 1.29496 50.3356 1.54332C50.4061 1.79169 50.4237 2.0578 50.3532 2.37712C50.3003 2.69645 50.1769 3.13996 50.0006 3.70766C49.789 4.31083 49.4717 4.91401 48.9957 5.51718C48.5196 6.12035 48.0436 6.67031 47.5147 7.1493C47.2855 7.43315 47.021 7.68151 46.7213 7.94762C46.4216 8.19598 46.1395 8.42661 45.875 8.62176C45.6987 8.74594 45.5401 8.85238 45.3461 8.95882C45.1698 9.06527 44.9935 9.15397 44.7996 9.26041C44.7114 9.29589 44.6409 9.38459 44.6233 9.52652C44.6056 9.6507 44.5704 9.8281 44.5351 10.0055C44.5351 10.1297 44.5351 10.2539 44.4822 10.3426C44.447 10.449 44.4117 10.52 44.3941 10.5555C44.3588 10.6087 44.3235 10.7329 44.3059 10.9635C44.2706 11.1764 44.253 11.4425 44.2354 11.7441C44.2354 12.0457 44.2001 12.3472 44.1825 12.6311C44.1649 12.9149 44.1472 13.1456 44.1472 13.3052C44.1472 13.4649 44.1472 13.5713 44.1825 13.6423C44.2178 13.6955 44.2706 13.7487 44.3412 13.7665C44.4998 13.7133 44.6056 13.6423 44.6585 13.5181C44.7114 13.3939 44.7996 13.2875 44.8701 13.1633C44.9582 12.9504 45.0288 12.7553 45.0817 12.5779C45.1346 12.4005 45.1874 12.1698 45.258 11.9037C45.2932 11.7441 45.3285 11.5489 45.3637 11.336C45.399 11.1232 45.4343 10.9458 45.4872 10.7861C45.4519 10.4845 45.4166 10.2716 45.3814 10.1297C45.3461 9.98777 45.3285 9.86359 45.2932 9.77488C45.258 9.68618 45.2051 9.57974 45.1522 9.4733C45.2051 9.08301 45.258 8.85238 45.3285 8.76368C45.399 8.69272 45.4872 8.65724 45.5929 8.67498C45.875 8.69272 46.1395 8.74594 46.3511 8.85238C46.5626 8.95882 46.7742 9.06527 46.9681 9.20719C47.0563 9.26041 47.1268 9.34911 47.1797 9.45555C47.2326 9.562 47.2502 9.6507 47.2326 9.72166C47.2326 9.89907 47.2326 10.0765 47.2502 10.2716C47.2502 10.4668 47.2502 10.6442 47.2855 10.7861C47.215 11.0167 47.1621 11.3183 47.1268 11.6908C47.0916 12.0457 47.021 12.3827 46.9505 12.7021C46.8976 12.8972 46.7918 13.1633 46.6332 13.4826C46.4921 13.8197 46.3687 14.0681 46.2805 14.2277C46.1219 14.4761 45.9103 14.7245 45.5929 14.9551C45.2932 15.2035 45.0111 15.4341 44.7643 15.6647L44.5175 15.7002V15.6824ZM44.9582 7.07834C44.9582 7.07834 45.1345 7.07834 45.2227 7.02512C45.3109 6.9719 45.399 6.91867 45.4695 6.86545C45.9456 6.56387 46.3863 6.20906 46.8095 5.76555C47.2326 5.32204 47.6028 4.87852 47.9026 4.41727C48.2199 3.95602 48.4315 3.54799 48.5549 3.17544C48.6254 3.01578 48.6783 2.80289 48.7665 2.55453C48.837 2.30616 48.8546 2.02232 48.837 1.70299L48.7488 1.56106C48.5196 1.77395 48.2904 2.02232 48.0612 2.30616C47.832 2.59001 47.55 2.92708 47.2326 3.35285C47.1092 3.51251 46.9505 3.7254 46.7389 4.00924C46.5274 4.29309 46.3158 4.59468 46.0866 4.94949C45.8574 5.28655 45.6282 5.6591 45.4343 6.01391C45.2227 6.38646 45.064 6.72353 44.9582 7.0606V7.07834Z" fill="#F1E4D4" stroke="#F1E4D4" stroke-width="0.25"/>
<path d="M51.9576 14.1037C51.8518 14.1392 51.7108 14.1747 51.5168 14.1924C51.3405 14.1924 51.1818 14.1924 51.0408 14.1924C50.8998 14.1924 50.8292 14.1392 50.8292 14.1037C50.8292 14.0328 50.7763 13.9973 50.7058 14.015C50.3708 13.8199 50.124 13.6957 50.0006 13.6602C49.8419 13.4828 49.7361 13.2699 49.6656 13.0038C49.5951 12.7554 49.6127 12.2765 49.7185 11.5846C49.6656 11.1411 49.7185 10.6443 49.9124 10.1121C50.0887 9.57991 50.3179 9.04769 50.6177 8.51548C50.9174 7.98327 51.2347 7.50428 51.5873 7.0785C51.9223 6.65273 52.2397 6.33341 52.5218 6.10278C52.6981 5.87216 52.9449 5.73023 53.2623 5.67701C53.5972 5.62379 53.8793 5.64153 54.1614 5.74797C54.3025 5.80119 54.4788 5.92538 54.6727 6.10278C54.8666 6.29793 55.0606 6.49307 55.2369 6.70596C55.4132 6.91884 55.5719 7.11399 55.6777 7.27365C55.7482 7.41557 55.8011 7.5575 55.854 7.66394C55.9069 7.78812 55.9421 7.91231 55.9774 8.08971C56.0126 8.24937 56.0303 8.51548 56.0303 8.85255C55.995 9.11865 55.9597 9.38476 55.9597 9.65087C55.9597 9.91697 55.9597 10.1831 55.995 10.4492C55.995 10.7153 56.0655 10.9104 56.1713 10.9991C56.2771 11.1056 56.4181 11.0878 56.5768 10.9637C56.7355 10.8572 56.9118 10.8217 57.0881 10.8572C57.2644 10.8927 57.4231 10.9991 57.5289 11.1411C57.6347 11.3007 57.6347 11.4959 57.5289 11.7797C57.476 11.9749 57.3526 12.17 57.1939 12.3652C57.0352 12.5603 56.8413 12.72 56.6473 12.8619C56.4534 13.0038 56.2242 13.0748 56.0126 13.1103C55.854 13.128 55.6953 13.0925 55.5366 12.9861C55.3603 12.8796 55.2016 12.7377 55.0429 12.5426C54.8843 12.3474 54.7609 12.1345 54.6374 11.8862L54.4435 11.4249L53.7735 12.2232C53.6149 12.4539 53.4562 12.649 53.3151 12.8264C53.1565 13.0038 53.0683 13.1457 53.0331 13.2167C52.9802 13.3586 52.8568 13.4828 52.6628 13.607C52.4689 13.7312 52.222 13.8731 51.9223 14.0505L51.9576 14.1037ZM52.2573 12.0103C52.4689 11.8329 52.6628 11.6378 52.8039 11.4249C52.9449 11.212 53.0859 10.9637 53.227 10.6976C53.368 10.4314 53.5091 10.1476 53.6678 9.82827C53.8617 9.47346 54.0027 9.18962 54.0733 8.97673C54.1438 8.76385 54.1967 8.55096 54.2319 8.30259C54.1614 8.16067 54.0556 8.00101 53.9322 7.84134C53.8088 7.68168 53.703 7.59298 53.5972 7.59298C53.4033 7.61072 53.1917 7.77038 52.9449 8.05423C52.6981 8.33808 52.4512 8.71062 52.1868 9.20736C52.1339 9.27832 52.081 9.4025 52.0281 9.57991C51.9576 9.73957 51.9047 9.89923 51.8518 10.0412C51.7989 10.1831 51.746 10.2718 51.7284 10.325C51.6931 10.396 51.6579 10.5201 51.605 10.733C51.5521 10.9459 51.5168 11.1588 51.4816 11.3717C51.4463 11.5846 51.4463 11.7265 51.4639 11.8152C51.4816 11.9039 51.4992 11.9926 51.5345 12.0813C51.5697 12.17 51.6402 12.2232 51.7637 12.241C51.8871 12.241 52.0457 12.17 52.2573 12.0103Z" fill="#F1E4D4" stroke="#F1E4D4" stroke-width="0.25"/>
<path d="M63.4703 12.9683C63.3822 13.0393 63.2411 13.0393 63.0825 12.9683C62.9062 12.8974 62.7299 12.7732 62.5535 12.5958C62.4301 12.4361 62.342 12.2765 62.2715 12.1168C62.2009 11.9394 62.148 11.691 62.0952 11.3362C62.0775 11.0524 62.0423 10.8572 62.0246 10.7508C62.007 10.6444 61.9365 10.6444 61.8307 10.7508C61.7249 10.8572 61.5133 11.1056 61.2136 11.4959C60.9139 11.8862 60.6142 12.241 60.3321 12.5248C60.05 12.8087 59.8032 12.9683 59.6092 12.9683C59.5034 12.9683 59.3624 12.9329 59.1861 12.8264C59.0098 12.72 58.8158 12.5781 58.6395 12.4184C58.4632 12.2587 58.3222 12.0813 58.234 11.9217C58.1106 11.6023 58.0401 11.1588 58.0577 10.6089C58.0577 10.0589 58.1106 9.49123 58.2164 8.87031C58.3222 8.2494 58.4456 7.6817 58.6219 7.14949C58.7806 6.59954 58.9569 6.15602 59.1508 5.81896C59.3448 5.46415 59.5211 5.28674 59.6798 5.28674C59.9266 5.28674 60.1381 5.37545 60.3497 5.55285C60.5437 5.73025 60.72 5.94314 60.8434 6.15602C60.9139 6.24473 60.9492 6.33343 60.9492 6.40439C60.9492 6.47535 60.8963 6.56405 60.8081 6.68824C60.7023 6.86564 60.5789 7.13175 60.4555 7.46882C60.3145 7.80588 60.191 8.17843 60.0676 8.56872C59.9442 8.95901 59.8384 9.33156 59.7503 9.66863C59.6621 10.0234 59.6092 10.3073 59.574 10.5202C59.5387 10.7331 59.574 10.8395 59.6092 10.8395C59.8032 10.8218 59.9795 10.7331 60.1382 10.6089C60.2968 10.4847 60.4731 10.2718 60.7023 10.0057C60.9492 9.66863 61.1784 9.33156 61.3547 9.01223C61.531 8.67517 61.7249 8.30262 61.9012 7.87685C62.0423 7.57526 62.2009 7.23819 62.3596 6.86564C62.5183 6.49309 62.6064 6.24473 62.6593 6.1028C62.8004 5.71251 62.9238 5.41093 62.9943 5.21578C63.0648 5.02064 63.1706 4.89645 63.3117 4.82549L63.7877 4.75453C63.7877 4.75453 63.9816 4.80775 64.105 4.89645C64.2285 4.93193 64.3519 5.0029 64.4753 5.07386C64.5987 5.16256 64.6692 5.23352 64.6869 5.30448C64.6516 5.44641 64.5811 5.67703 64.5105 5.96088C64.4224 6.24473 64.3695 6.45761 64.3342 6.59954C64.1579 7.23819 63.9816 7.87685 63.8053 8.48002C63.629 9.0832 63.5409 9.72185 63.5056 10.3428C63.5056 10.5379 63.5232 10.7685 63.5938 11.0346C63.6466 11.3007 63.7172 11.4782 63.7877 11.5846C63.8406 11.6556 63.9111 11.7443 63.9816 11.8507C64.0522 11.9394 64.1403 12.0281 64.2285 12.0813C64.3695 12.1523 64.3695 12.2587 64.2637 12.4007C64.1403 12.5426 63.9993 12.6668 63.823 12.7909C63.6466 12.9151 63.5409 12.9683 63.488 12.9683H63.4703ZM62.007 3.67236C61.5133 3.74333 61.1078 3.67236 60.7729 3.424C60.4379 3.17563 60.1205 2.73212 59.7855 2.07573C59.715 1.9338 59.6974 1.79188 59.715 1.64996C59.715 1.50803 59.7503 1.40159 59.7855 1.33063C59.8737 1.20644 59.9795 1.11774 60.1029 1.08226C60.2263 1.04678 60.3321 1.02904 60.385 1.04678C60.5965 1.08226 60.7729 1.17096 60.9492 1.25967C61.1255 1.34837 61.2136 1.54351 61.2312 1.82736C61.2665 1.89832 61.3018 1.95154 61.337 2.0225C61.3723 2.07573 61.3899 2.12895 61.4076 2.14669C61.4605 2.23539 61.531 2.28861 61.6191 2.28861C61.7073 2.28861 61.7602 2.28861 61.8131 2.25313C62.0775 2.11121 62.3067 1.95154 62.5183 1.80962C62.7299 1.6677 62.9062 1.49029 63.0472 1.27741C63.1882 1.1 63.3117 0.958079 63.4175 0.833896C63.5232 0.709713 63.6466 0.567789 63.7701 0.408126H63.7877C63.9111 0.248462 64.0698 0.19524 64.2637 0.230721C64.4577 0.248462 64.5634 0.301683 64.5811 0.372645C64.6692 0.425866 64.7221 0.550049 64.7574 0.709713C64.7926 0.869377 64.8279 1.0113 64.8455 1.11774V1.20644C64.7926 1.31289 64.7574 1.45481 64.7221 1.61447C64.6869 1.79188 64.5634 1.96928 64.3519 2.16443C64.1227 2.43053 63.9111 2.64342 63.6643 2.82082C63.4175 2.99823 63.1706 3.19337 62.8709 3.424C62.7827 3.49496 62.6593 3.54818 62.5359 3.58366C62.4125 3.61914 62.2362 3.65462 62.0423 3.6901L62.007 3.67236Z" fill="#F1E4D4" stroke="#F1E4D4" stroke-width="0.25"/>
<path d="M13.7519 35.2324C13.7519 35.2324 13.5755 35.3388 13.364 35.3566C13.1524 35.3743 12.9585 35.3033 12.7998 35.1437C12.6588 34.9663 12.5706 34.7534 12.5001 34.505C12.4472 34.2567 12.3767 33.9018 12.3061 33.4583C12.3061 32.9616 12.3061 32.2875 12.359 31.4537C12.3943 30.6199 12.4472 29.6974 12.5177 28.6684C12.5882 27.6395 12.6235 26.5928 12.694 25.5106C12.7293 24.9962 12.7469 24.5704 12.7645 24.2156C12.7822 23.8608 12.7822 23.506 12.7822 23.1511C12.7822 23.1866 12.7645 23.2044 12.7469 23.2399C12.7469 23.2753 12.7116 23.3108 12.7116 23.3286C12.7116 23.364 12.7116 23.3818 12.694 23.4173C12.6411 23.6301 12.553 23.8785 12.4472 24.1446C12.359 24.3398 12.3061 24.5526 12.2533 24.7833C12.2004 25.0316 12.0946 25.351 11.9183 25.759C11.7772 26.2202 11.6185 26.7525 11.4422 27.3379C11.2659 27.9233 11.1073 28.4201 10.9838 28.7749C10.9133 28.9523 10.8604 29.0942 10.8075 29.2184C10.7546 29.3426 10.7194 29.449 10.7018 29.52C10.6841 29.6796 10.6136 29.8925 10.5431 30.1409C10.4549 30.3892 10.3491 30.6376 10.2257 30.8682C10.1728 31.0102 10.0847 31.1698 9.9789 31.365C9.87311 31.5601 9.7497 31.8085 9.60865 32.1101C9.60865 32.1988 9.53813 32.3407 9.41472 32.5536C9.2913 32.7665 9.15026 32.9971 8.97395 33.2632C8.79765 33.5293 8.62134 33.7599 8.4274 33.9906C8.0219 34.4695 7.66928 34.7889 7.36956 34.9485C7.06984 35.1082 6.6996 35.055 6.2412 34.7889C6.012 34.5937 5.8357 34.3986 5.67702 34.1857C5.51835 33.9728 5.41256 33.6712 5.32441 33.2632C5.23626 32.8552 5.21863 32.2875 5.21863 31.5246C5.21863 31.0456 5.23626 30.5312 5.27152 29.999C5.28915 29.4667 5.32441 28.9345 5.35967 28.4378C5.39493 27.9411 5.43019 27.4976 5.46545 27.125C5.50072 26.7525 5.53598 26.4864 5.53598 26.3444C5.51835 25.9896 5.48309 25.7945 5.44782 25.7945C5.41256 25.7945 5.35967 25.8654 5.28915 26.0783C5.21863 26.2557 5.09521 26.6105 4.93654 27.1427C4.76023 27.675 4.58392 28.3136 4.37235 29.0232C4.16079 29.7328 3.98448 30.4602 3.79054 31.1698C3.4203 32.3407 3.10295 33.3164 2.85612 34.097C2.60929 34.8776 2.39772 35.5162 2.22142 35.9775C2.04511 36.4565 1.9217 36.8113 1.83354 37.0419C1.74539 37.2725 1.67487 37.4499 1.62197 37.5564C1.56908 37.6628 1.53382 37.7338 1.51619 37.7515C1.30462 37.7693 1.11069 37.716 0.916749 37.5564C0.722812 37.3967 0.564136 37.2193 0.423091 36.9709C0.370199 36.829 0.317307 36.6871 0.282046 36.5452C0.246785 36.4032 0.229154 36.2258 0.246785 36.0307C0.246785 35.8356 0.299677 35.6049 0.370199 35.3743C0.475983 34.984 0.599398 34.6292 0.722812 34.3631C0.846227 34.0793 0.916749 33.9018 0.95201 33.8486C1.0049 33.7422 1.04016 33.618 1.05779 33.5116C1.07542 33.4051 1.09306 33.2809 1.07542 33.1745C1.12832 33.0858 1.19884 32.8906 1.30462 32.5891C1.41041 32.2875 1.49856 31.9859 1.58671 31.6488C1.65724 31.4537 1.76302 31.1698 1.90407 30.7973C2.04511 30.4247 2.16852 30.0344 2.3272 29.6087C2.46825 29.1829 2.60929 28.7926 2.71507 28.4378C3.12058 27.2137 3.43793 26.238 3.66713 25.5106C3.89633 24.7833 4.07263 24.3043 4.19605 24.0914C4.2842 24.0027 4.33709 23.843 4.37235 23.6301C4.40762 23.4173 4.44288 23.2576 4.47814 23.1511C4.60155 22.7254 4.7426 22.3706 4.88364 22.069C5.04232 21.7674 5.18336 21.6077 5.34204 21.59C5.44782 21.5723 5.6065 21.59 5.80044 21.6255C5.99437 21.661 6.18831 21.7674 6.38225 21.8916C6.57618 22.0512 6.75249 22.2641 6.94643 22.5302C7.14037 22.7963 7.22852 23.1866 7.24615 23.7011C7.28141 23.9317 7.28141 24.1978 7.29904 24.5349C7.29904 24.8542 7.29904 25.1736 7.29904 25.4929C7.29904 25.8122 7.29904 26.0783 7.28141 26.2912C7.28141 26.9476 7.28141 27.5508 7.24615 28.1539C7.22852 28.7394 7.19326 29.2893 7.17563 29.7861C7.158 30.2828 7.14037 30.7086 7.14037 31.0811C7.14037 31.4537 7.14037 31.7553 7.17563 31.9681C7.19326 32.1988 7.24615 32.3407 7.3343 32.3939C7.38719 32.3939 7.44009 32.3762 7.49298 32.3052C7.5635 32.2342 7.61639 32.181 7.63402 32.1101C7.70455 31.9859 7.75744 31.8617 7.7927 31.7375C7.84559 31.6133 7.89848 31.4537 7.98664 31.2585C8.14531 30.9037 8.32162 30.5312 8.49793 30.1054C8.67423 29.6796 8.86817 29.1652 9.115 28.562C9.3442 27.9411 9.62629 27.1782 9.94364 26.2735C10.261 25.3687 10.6489 24.2511 11.0896 22.9028C11.3188 22.3528 11.5304 21.8029 11.7243 21.2707C11.9183 20.7207 12.1122 20.2949 12.3061 19.9934C12.4648 19.7272 12.7116 19.6031 13.0466 19.6208C13.364 19.6208 13.699 19.745 14.0163 19.9756C14.3337 20.2062 14.5452 20.5256 14.651 20.9159C14.7039 21.111 14.7215 21.4658 14.7392 21.9803C14.7392 22.4948 14.7392 23.0624 14.6863 23.7188C14.651 24.3575 14.5805 24.9962 14.51 25.6171C14.51 25.8654 14.51 26.1848 14.4747 26.5928C14.4571 27.0008 14.4218 27.4266 14.3866 27.8524C14.3513 28.2781 14.316 28.6684 14.2808 29.0055C14.2808 29.5022 14.2808 29.8925 14.2631 30.1764C14.2631 30.4602 14.2808 30.7973 14.3513 31.1521C14.2631 31.4004 14.2455 31.7375 14.2808 32.1633C14.316 32.5891 14.3866 33.0326 14.4571 33.4761C14.51 34.026 14.4571 34.4341 14.3337 34.7002C14.2103 34.9485 14.1045 35.0905 14.0516 35.0727C13.9282 35.055 13.8576 35.1082 13.8047 35.2324H13.7519Z" fill="#F1E4D4" stroke="#F1E4D4" stroke-width="0.25"/>
<path d="M20.6983 32.4295C20.3281 32.7489 19.9049 32.9617 19.4466 33.0859C18.9882 33.2101 18.5474 33.2279 18.1066 33.1392C17.6659 33.0504 17.2956 32.873 16.9959 32.6069C16.8196 32.4473 16.6433 32.1812 16.4317 31.8086C16.2378 31.4361 16.1144 30.9039 16.0615 30.1942C16.0262 29.5378 16.0967 28.846 16.2907 28.1363C16.4846 27.4267 16.7491 26.7703 17.1193 26.1849C17.4896 25.5995 17.9127 25.156 18.424 24.8721C18.6003 24.7657 18.7942 24.677 18.9882 24.606C19.1821 24.535 19.4466 24.4818 19.7815 24.4463C20.1165 24.4286 20.4162 24.4463 20.6807 24.5173C20.9452 24.5883 21.1567 24.677 21.2978 24.8011C21.5622 24.9786 21.7562 25.1737 21.862 25.3688C21.9677 25.564 22.0383 25.7591 22.0559 25.9543C22.0559 26.4155 21.9677 26.93 21.7385 27.5154C21.5093 28.1009 21.1215 28.5621 20.5925 28.9169C20.381 29.0589 20.1165 29.183 19.7992 29.2717C19.4818 29.3604 19.041 29.3959 18.4592 29.3959C18.1066 29.3959 17.8951 29.4669 17.8245 29.6265C17.754 29.7862 17.754 30.0701 17.8422 30.4603C17.9127 30.7087 18.0185 30.9216 18.1419 31.0813C18.2653 31.2587 18.4592 31.3474 18.7237 31.3651C19.0587 31.3651 19.2879 31.3119 19.4113 31.2409C19.5347 31.17 19.6934 31.0635 19.8873 30.9216C19.9931 30.8329 20.0813 30.7265 20.1694 30.6378C20.2576 30.549 20.3457 30.4249 20.4339 30.3184C20.522 30.212 20.5925 30.141 20.6631 30.0878C20.716 30.0168 20.7865 29.9636 20.857 29.9459C20.9275 29.9281 20.998 29.8927 21.0686 29.8927C21.2272 29.8927 21.3859 29.9281 21.5446 30.0523C21.7209 30.1765 21.8267 30.3007 21.8972 30.4426C21.9148 30.549 21.8796 30.7265 21.7738 30.9571C21.668 31.1877 21.527 31.4361 21.333 31.6844C21.1391 31.9505 20.9275 32.1812 20.6807 32.4118L20.6983 32.4295ZM19.5523 27.817C19.6405 27.7638 19.7639 27.6396 19.9226 27.4445C20.0813 27.2493 20.2223 27.0542 20.3457 26.859C20.4691 26.6639 20.522 26.5042 20.5044 26.4155C20.4691 26.2559 20.3457 26.1494 20.1341 26.0785C19.905 26.0075 19.6405 26.043 19.3408 26.1672C19.235 26.2204 19.1116 26.3091 18.9882 26.4687C18.8647 26.6284 18.7413 26.7881 18.6179 26.9832C18.4945 27.1784 18.3887 27.3558 18.3182 27.5154C18.2477 27.6751 18.1771 27.817 18.1595 27.9057C18.23 27.9589 18.3535 27.9944 18.5298 28.0122C18.7061 28.0122 18.8824 28.0122 19.0939 27.9767C19.3055 27.9412 19.4642 27.888 19.5876 27.8348L19.5523 27.817Z" fill="#F1E4D4" stroke="#F1E4D4" stroke-width="0.25"/>
<path d="M28.6145 23.3462C28.7908 23.2043 29.02 23.1156 29.3198 23.0979C29.6195 23.0801 29.8839 23.1511 30.1131 23.3285C30.3423 23.5059 30.4305 23.8075 30.4129 24.251C30.3776 24.3752 30.3423 24.5171 30.2718 24.6945C30.2189 24.8719 30.166 25.0493 30.1131 25.2267C30.0603 25.4219 30.0074 25.5993 29.9721 25.7589C29.9368 25.9186 29.9016 26.0783 29.884 26.1847V26.2557C30.0779 26.2734 30.2013 26.3976 30.2895 26.6105C30.3776 26.8233 30.4129 26.983 30.3952 27.0895C30.3247 27.2669 30.2718 27.3733 30.2189 27.4265C30.166 27.4797 30.025 27.5684 29.7958 27.6749C29.7429 27.6926 29.7076 27.7281 29.6724 27.7459C29.6371 27.7636 29.6195 27.7991 29.6195 27.87C29.6195 28.1361 29.6195 28.4022 29.6195 28.6329C29.6195 28.8812 29.6019 29.1119 29.5842 29.3425C29.5666 29.5731 29.5313 29.8037 29.5137 30.0344C29.5137 30.1585 29.4784 30.2827 29.4079 30.4247C29.355 30.5666 29.1787 30.673 28.9143 30.7617C28.6145 30.7085 28.403 30.6553 28.2796 30.6375C28.1561 30.6198 28.0327 30.5666 27.9446 30.5134C27.8564 30.4779 27.7859 30.336 27.7506 30.1231C27.7154 29.8924 27.7154 29.6973 27.7506 29.5199C27.7859 29.2893 27.8035 29.0941 27.8388 28.9345C27.8741 28.7571 27.8741 28.4909 27.8741 28.1361C27.7154 28.1716 27.5743 28.2071 27.4509 28.2426C27.3275 28.2958 27.2041 28.3313 27.0807 28.3845C26.9749 28.42 26.8515 28.4732 26.7457 28.5264C26.6399 28.5797 26.5165 28.6151 26.3931 28.6506L26.1286 28.7038C26.0228 28.7216 25.9347 28.7393 25.8289 28.7571C25.7231 28.7571 25.6173 28.7571 25.4939 28.7571L25.4234 28.828C25.4234 28.9699 25.4234 29.1651 25.3529 29.4135C25.3 29.6618 25.2824 29.9102 25.3352 30.1408C25.3529 30.3182 25.3705 30.5666 25.3529 30.8859C25.3529 31.2052 25.3529 31.4536 25.3705 31.6487C25.4058 31.9503 25.2824 32.181 24.965 32.3051C24.6476 32.4293 24.2421 32.3406 23.7661 32.0213C23.6956 31.9858 23.6603 31.9503 23.6251 31.8971C23.5898 31.8439 23.5545 31.7729 23.5193 31.702V30.0521C23.5545 29.8392 23.5722 29.6441 23.5722 29.4667C23.5722 29.2893 23.5898 29.1119 23.6251 28.9345C23.678 28.5974 23.7309 28.2603 23.7661 27.87C23.8014 27.4975 23.8719 27.1959 23.9601 26.9475C23.9601 26.8943 23.9953 26.7879 24.0129 26.6814C24.0306 26.575 24.0482 26.4331 24.0658 26.3089C24.0835 26.1847 24.1011 26.0428 24.1187 25.9363C24.1364 25.8121 24.154 25.7234 24.1716 25.6525C24.2069 25.5106 24.2421 25.2799 24.2774 24.9961C24.3127 24.7122 24.3479 24.4284 24.4008 24.18C24.4361 23.9317 24.4537 23.7897 24.4537 23.772C24.4537 23.6123 24.5242 23.4881 24.6476 23.4172C24.7711 23.3462 24.8592 23.293 24.9474 23.293C25.3881 23.2043 25.7231 23.2753 25.9347 23.4704C26.1463 23.6833 26.2697 23.8784 26.2873 24.0736C26.2873 24.1623 26.2873 24.2332 26.3049 24.3042C26.3226 24.3752 26.3049 24.4284 26.3049 24.4816L25.8113 27.0008V27.1072C25.9347 27.0895 26.0581 27.0362 26.1991 26.983C26.3402 26.9121 26.4812 26.8766 26.6223 26.8411C26.6928 26.8056 26.7986 26.7879 26.9396 26.7346C27.0807 26.6992 27.2394 26.6459 27.4333 26.6105C27.6272 26.575 27.8212 26.5572 28.0151 26.5572C28.1209 26.096 28.1738 25.688 28.2267 25.3509C28.2619 25.0138 28.3501 24.6413 28.5088 24.1978C28.5088 24.1623 28.5264 24.0558 28.544 23.8784C28.5617 23.701 28.6145 23.5059 28.6851 23.3285L28.6145 23.3462Z" fill="#F1E4D4" stroke="#F1E4D4" stroke-width="0.25"/>
<path d="M36.5836 29.8748C36.4073 29.8038 36.2486 29.7328 36.0723 29.6619C35.9665 29.2361 35.896 28.7926 35.896 28.3491C35.896 27.9056 35.896 27.4621 35.9489 27.0186L35.8078 27.2137C35.8078 27.2137 35.7197 27.3556 35.6492 27.4089C35.5963 27.4798 35.5258 27.5508 35.4552 27.6217C35.3847 27.6927 35.3318 27.7637 35.2613 27.8346C35.2084 27.8878 35.0497 28.0298 34.8205 28.2427C34.5913 28.4555 34.3269 28.7039 34.0448 28.9523C33.7627 29.2006 33.5159 29.4313 33.2867 29.6264C33.0575 29.8216 32.934 29.928 32.9164 29.928C32.5638 29.9635 32.2817 29.857 32.0878 29.5909C31.8938 29.3248 31.7352 29.0587 31.5941 28.7926C31.6823 28.5797 31.7881 28.3846 31.9115 28.2249C32.0349 28.0652 32.2112 27.9411 32.4228 27.8524C32.5991 27.7459 32.8106 27.604 33.0398 27.4266C33.269 27.2492 33.4982 27.054 33.7098 26.8412C33.9214 26.6283 34.1153 26.4509 34.2563 26.3089C34.1329 26.3089 34.0271 26.2735 33.9214 26.238C33.8156 26.2025 33.7098 26.1315 33.604 26.0428C33.2867 25.8122 33.0398 25.5106 32.8635 25.1026C32.6872 24.7123 32.6167 24.3575 32.6696 24.0204C32.6696 23.9317 32.7048 23.843 32.7225 23.7366C32.7401 23.6479 32.7577 23.5414 32.7577 23.4527C32.793 23.2398 32.8283 23.0624 32.8812 22.885C32.934 22.7076 33.0046 22.5657 33.0751 22.4415C33.2338 22.1932 33.4101 21.998 33.6393 21.8384C33.8685 21.6787 34.0977 21.5545 34.3621 21.4658C34.3974 21.4481 34.4503 21.4303 34.4855 21.4303C34.5208 21.4303 34.5737 21.4126 34.609 21.3771C34.8029 21.3061 34.9968 21.2529 35.1908 21.2174C35.3847 21.1642 35.5786 21.1287 35.7726 21.0933C35.9313 21.0933 36.0899 21.0578 36.2486 21.0223L36.6894 20.9336C37.0244 21.0223 37.3064 21.1642 37.518 21.3239C37.7296 21.4835 37.8706 21.7497 37.9411 22.1222C38.0293 22.548 38.0646 23.0092 38.0646 23.506C38.0646 24.0027 38.0469 24.4994 37.994 25.0316C37.9411 25.5461 37.9059 26.0783 37.853 26.5928C37.8001 27.1073 37.7648 27.6217 37.7296 28.1007C37.7296 28.2427 37.7296 28.4023 37.7296 28.5442C37.7296 28.6862 37.7296 28.8458 37.7296 28.9877C37.7296 29.2361 37.6943 29.4667 37.6062 29.6796C37.518 29.8925 37.3241 30.0167 37.0596 30.0522C36.8833 29.9812 36.7246 29.9103 36.5483 29.8393L36.5836 29.8748ZM35.7197 22.8318C35.5257 22.8318 35.3671 22.885 35.2613 22.956C35.1202 23.0624 34.9792 23.2221 34.8029 23.4705C34.6442 23.7188 34.5561 23.9672 34.5208 24.1978C34.4855 24.4285 34.609 24.6236 34.8734 24.73C34.9792 24.7655 35.085 24.801 35.1908 24.8365C35.2965 24.872 35.4023 24.9252 35.5257 24.9607C35.6315 24.9784 35.7373 25.0139 35.8255 25.0316C35.9313 25.0494 36.0194 25.1026 36.1252 25.1558C36.1428 24.9607 36.1605 24.7655 36.1781 24.5704C36.1781 24.3752 36.2133 24.1801 36.231 23.9849C36.231 23.843 36.2486 23.7011 36.2662 23.5592C36.2662 23.4173 36.2662 23.2753 36.2662 23.1334C36.2662 22.9915 36.2486 22.8496 36.2133 22.7254C36.0723 22.7609 35.9136 22.7963 35.7197 22.7963V22.8318Z" fill="#F1E4D4" stroke="#F1E4D4" stroke-width="0.25"/>
<path d="M41.2909 28.1364C41.2909 28.1364 41.1322 28.0299 40.9736 27.9767C40.8149 27.9235 40.7444 27.8703 40.7267 27.7993C40.7267 27.7638 40.7267 27.7283 40.6915 27.6929C40.6915 27.6574 40.6386 27.6396 40.5857 27.6574C40.5328 27.6219 40.5328 27.4622 40.5857 27.1784C40.6209 26.8945 40.6915 26.5575 40.7796 26.1672C40.8678 25.7769 40.9736 25.3866 41.097 25.014C41.2204 24.6415 41.3085 24.3399 41.3967 24.1093C41.4496 24.0561 41.4849 23.9851 41.5025 23.9141C41.5025 23.8254 41.5025 23.79 41.4672 23.8077C41.573 23.5061 41.6435 23.3464 41.6788 23.2932C41.7493 23.0803 41.8022 22.8675 41.8198 22.6546C41.8198 22.4417 41.8198 22.2643 41.7669 22.1401C41.6964 22.0869 41.6083 22.0869 41.4672 22.1756C41.4143 22.1933 41.3438 22.2465 41.238 22.2998C41.1322 22.353 41.0617 22.4239 40.9912 22.4949C40.7091 22.7788 40.4975 22.9384 40.3565 22.9562C40.2154 22.9739 40.0391 22.8497 39.8276 22.5304C39.7394 22.3885 39.6865 22.2465 39.6865 22.1046C39.6865 21.9627 39.7042 21.8385 39.7923 21.7321C39.8805 21.6079 40.0039 21.4837 40.1449 21.3418C40.286 21.1999 40.3917 21.1112 40.4446 21.0579C40.5857 20.9337 40.7796 20.7918 41.0265 20.6144C41.2733 20.437 41.432 20.3483 41.4848 20.3306C41.8198 20.1532 42.1196 20.0822 42.4016 20.1532C42.6661 20.2064 42.8953 20.3661 43.0716 20.6499C43.3184 20.845 43.4595 21.0757 43.5124 21.3418C43.5653 21.6079 43.5124 21.945 43.4066 22.3885L43.2655 22.7433C43.2303 22.9029 43.2303 22.9739 43.2655 22.9562C43.3008 22.9384 43.3713 22.8852 43.4066 22.7788C43.4419 22.7078 43.5124 22.6191 43.6005 22.4772C43.7063 22.3352 43.7768 22.2643 43.8121 22.2643C43.8826 22.2288 43.9002 22.1578 43.8826 22.0514C43.9179 21.9982 43.9708 21.9272 44.0589 21.8208C44.1118 21.8208 44.1823 21.7675 44.2529 21.6788C44.3234 21.5901 44.4644 21.4482 44.6584 21.2176C44.7818 21.0757 44.9228 20.987 45.0462 20.9692C45.346 20.8096 45.6281 20.8628 45.8925 21.1289C46.157 21.395 46.3333 21.7675 46.4214 22.2643L46.1922 23.4706L46.774 22.4062C46.8446 22.282 46.8975 22.1578 46.9856 22.0691C47.0561 21.9627 47.1267 21.8917 47.1795 21.8208C47.1795 21.7143 47.2501 21.6434 47.3559 21.5901C47.4087 21.5724 47.4264 21.5369 47.4264 21.4837C47.4793 21.4127 47.5498 21.3418 47.6203 21.2886C47.6908 21.2176 47.7437 21.1644 47.7614 21.0934C47.9729 20.9515 48.255 20.8805 48.6076 20.8805C48.9602 20.8805 49.2247 21.0047 49.4186 21.2708C49.5421 21.4127 49.6655 21.5547 49.7713 21.6611C49.877 21.7675 49.9476 21.945 50.0005 22.1933C50.0005 22.4062 50.0005 22.5659 50.0005 22.6546C50.0005 22.7433 50.0005 22.832 50.0005 22.9207C50.0005 23.0094 50.0005 23.169 50.0181 23.3997C49.9828 23.5239 49.9828 23.648 50.0005 23.7722C50.0005 23.8964 50.0357 24.0206 50.0533 24.127C50.0886 24.3044 50.1239 24.4286 50.1415 24.4818C50.1591 24.5351 50.2296 24.5705 50.3178 24.5528C50.5117 24.4818 50.6528 24.3754 50.7762 24.2689C50.8996 24.1448 51.023 24.0028 51.1464 23.8254C51.3227 23.5948 51.4991 23.5239 51.6754 23.6303C51.8517 23.7367 51.9927 23.8609 52.0632 24.0206C52.0985 24.0738 52.0985 24.198 52.0632 24.4109C52.0103 24.6238 51.9575 24.8366 51.8869 25.0318C51.8164 25.2269 51.7283 25.3334 51.6754 25.3511C51.6401 25.3511 51.5696 25.4398 51.4638 25.564C51.358 25.7059 51.2699 25.7946 51.217 25.8478C51.1464 25.972 51.0583 26.0785 50.9878 26.1672C50.9172 26.2736 50.8115 26.3268 50.7057 26.3446C50.6528 26.3446 50.5823 26.3801 50.5117 26.4333C50.4412 26.4865 50.3531 26.522 50.2649 26.5397C50.1415 26.6107 49.9123 26.6284 49.6126 26.5929C49.3129 26.5575 49.0837 26.3978 48.9602 26.114C48.8721 25.972 48.7663 25.7946 48.6076 25.5817C48.4666 25.3689 48.3784 25.085 48.3608 24.7125C48.3608 24.4464 48.3608 24.2157 48.3432 24.0028C48.3255 23.79 48.3255 23.648 48.3432 23.5416L48.2903 23.24C48.255 23.0803 48.2198 23.0094 48.1845 23.0094C48.1316 23.0094 48.0434 23.1158 47.92 23.2755C47.7966 23.4529 47.6556 23.6658 47.4793 23.9319C47.303 24.198 47.1443 24.4818 46.9856 24.8012C46.8269 25.1027 46.6859 25.4043 46.5625 25.7059C46.4743 25.8833 46.3862 26.0962 46.3333 26.3268C46.2804 26.5575 46.2275 26.6994 46.1922 26.7349C46.1217 26.8591 45.963 26.9123 45.7162 26.8768C45.4694 26.8413 45.2754 26.7349 45.1344 26.5752C45.0815 26.5042 45.011 26.451 44.9581 26.451C44.9052 26.451 44.8523 26.4155 44.7994 26.3446C44.7465 26.2914 44.7289 26.1672 44.7289 25.9543C44.7289 25.7591 44.7465 25.4221 44.817 24.9608C44.8876 24.4641 44.9581 23.8077 45.0462 22.9916C45.0462 22.9384 44.9405 22.9916 44.7641 23.2045C44.5878 23.3997 44.3763 23.648 44.1471 23.9319C44.0589 24.1093 43.9179 24.3399 43.7768 24.606C43.6182 24.8721 43.4419 25.2092 43.2479 25.5817C43.054 25.9543 42.8424 26.3801 42.5956 26.8768C42.2959 27.5332 42.0667 27.9235 41.8904 28.1009C41.714 28.2605 41.5377 28.2605 41.3438 28.1009L41.2909 28.1364Z" fill="#F1E4D4" stroke="#F1E4D4" stroke-width="0.25"/>
<path d="M55.0252 26.3089C54.7079 26.3443 54.4434 26.3621 54.2671 26.3976C54.0908 26.433 53.9321 26.3976 53.7911 26.3621C53.65 26.3266 53.4913 26.2379 53.2974 26.1137C53.0858 25.9718 52.9095 25.7766 52.7861 25.5638C52.6627 25.3509 52.5746 25.0848 52.504 24.7654C52.4159 24.2865 52.3982 23.7542 52.4511 23.1333C52.504 22.5124 52.5922 21.8915 52.698 21.2706C52.8214 20.6497 52.9272 20.082 53.0506 19.5675C53.1564 19.053 53.2445 18.6982 53.2798 18.4499C53.2445 18.2192 53.315 18.0773 53.509 17.9886C53.7029 17.8999 53.9321 17.8467 54.1789 17.8467C54.4258 17.8467 54.6021 17.8822 54.6902 17.9709C54.796 18.0596 54.8842 18.1483 54.99 18.237C55.0957 18.3257 55.1486 18.4499 55.2015 18.6095C55.272 18.8047 55.272 19.0175 55.2015 19.2127C55.131 19.4078 55.0605 19.5852 54.99 19.7094C54.8489 19.9755 54.7255 20.2949 54.6021 20.7029C54.4787 21.1109 54.3729 21.5367 54.2671 21.9979C54.1613 22.4414 54.0908 22.885 54.0732 23.2752C54.0379 23.6833 54.0379 24.0026 54.0732 24.251C54.1084 24.4993 54.2142 24.6413 54.3552 24.659C54.6902 24.6767 55.0252 24.6235 55.3778 24.4639C55.7304 24.3042 56.0302 24.109 56.277 23.8429C56.5414 23.5768 56.7178 23.3107 56.8235 23.0091C56.8941 22.7963 56.9117 22.6011 56.8764 22.4414C56.8412 22.2818 56.6825 22.2286 56.3828 22.264C56.1888 22.2818 55.9773 22.335 55.7657 22.406C55.5541 22.4769 55.2897 22.5479 54.9723 22.6366C54.8313 22.5479 54.6902 22.4237 54.5316 22.264C54.3729 22.1044 54.2142 22.0157 54.1084 21.9802C54.1084 21.6077 54.2142 21.3061 54.4434 21.0932C54.6902 20.8803 54.9371 20.7206 55.2368 20.6319C55.5189 20.5432 55.7128 20.49 55.8362 20.49C56.1183 20.49 56.4357 20.5255 56.7706 20.6142C57.1056 20.7029 57.423 20.8448 57.6874 21.04C57.8461 21.1641 57.9695 21.2883 58.0929 21.4302C58.2164 21.5722 58.3045 21.7496 58.375 21.9447C58.4984 22.2995 58.5513 22.6543 58.5337 22.9914C58.5161 23.3462 58.4279 23.6478 58.3045 23.9316C58.1106 24.3397 57.7756 24.7122 57.2996 25.0848C56.8235 25.4573 56.3122 25.8121 55.7657 26.1492C55.6247 26.1669 55.5189 26.1847 55.4307 26.1669C55.3426 26.1669 55.2191 26.1847 55.0781 26.2734L55.0252 26.3089Z" fill="#F1E4D4" stroke="#F1E4D4" stroke-width="0.25"/>
<path d="M62.6592 24.9605C62.2714 25.1025 61.8658 25.1557 61.4427 25.0847C61.0196 25.0138 60.6493 24.8541 60.332 24.588C60.0146 24.3219 59.8207 23.9671 59.7325 23.5236C59.6091 23.1155 59.5562 22.6011 59.5739 21.9979C59.5739 21.3947 59.6444 20.7738 59.7854 20.1529C59.9088 19.5142 60.1028 18.982 60.3496 18.503C60.5612 18.1127 60.7904 17.7579 61.0019 17.4209C61.2135 17.0838 61.4427 16.8532 61.6366 16.7112C61.813 16.5871 62.0421 16.4806 62.3242 16.3742C62.6063 16.2677 62.8003 16.2145 62.9061 16.1968C63.1353 16.1968 63.3997 16.25 63.6994 16.321C63.9992 16.3919 64.1578 16.5161 64.1931 16.6758L64.3165 16.7645C64.3165 16.7645 64.5104 16.8354 64.6515 17.0128C64.7925 17.1902 64.9159 17.4031 65.0217 17.6515C65.1275 17.8999 65.1451 18.1127 65.0922 18.2724C65.0922 18.5563 65.0217 18.8224 64.9159 19.1062C64.8102 19.3901 64.6867 19.532 64.581 19.5675C64.5281 19.5675 64.4752 19.5852 64.4223 19.6029C64.3694 19.6029 64.3518 19.6562 64.3694 19.7271C64.387 19.7981 64.3165 19.8513 64.1755 19.869C64.0344 19.8868 63.8757 19.9045 63.7171 19.869C63.5584 19.8513 63.435 19.7803 63.3821 19.6739C63.3821 19.6029 63.3821 19.5142 63.3821 19.3901C63.3821 19.2659 63.3821 19.0707 63.3997 18.8046C63.3997 18.3966 63.3644 18.1305 63.2763 18.024C63.1881 17.9176 63.0118 17.9353 62.7474 18.095C62.43 18.3611 62.2008 18.645 62.0245 18.9288C61.8482 19.2127 61.7248 19.6207 61.6366 20.1174C61.5485 20.6141 61.478 21.2883 61.4251 22.1576C61.4074 22.4946 61.4251 22.743 61.5309 22.9204C61.6366 23.0978 61.6895 23.1865 61.7424 23.1865C61.954 23.2042 62.1656 23.1865 62.3771 23.0978C62.6063 23.0268 62.7826 22.9204 62.9237 22.814C63.1176 22.6543 63.2939 22.4946 63.4526 22.335C63.6113 22.1753 63.77 21.9979 63.9463 21.8028C63.9992 21.7495 64.052 21.6608 64.0873 21.5189C64.1226 21.3947 64.1931 21.2883 64.2812 21.2173C64.3694 21.0222 64.4928 20.9157 64.6515 20.8803C64.8278 20.8448 64.9865 20.8093 65.1628 20.7738C65.2862 20.7738 65.4096 20.827 65.5506 20.9157C65.6917 21.0044 65.8151 21.0931 65.8856 21.1818C65.9738 21.2705 65.9738 21.3415 65.8856 21.4125C65.8327 21.4125 65.7975 21.4657 65.7975 21.5366C65.8327 21.5899 65.7975 21.7318 65.6917 21.9447C65.5859 22.1576 65.4449 22.4059 65.2509 22.672C65.0746 22.9381 64.8983 23.1688 64.722 23.3639C64.5457 23.5591 64.4223 23.6655 64.3341 23.6832C64.1931 23.701 64.1402 23.7719 64.1578 23.8429C64.1578 23.8784 64.0697 23.9671 63.8934 24.109C63.7171 24.2509 63.5055 24.4106 63.2763 24.5703C63.0471 24.7299 62.8355 24.8541 62.6416 24.9251L62.6592 24.9605Z" fill="#F1E4D4" stroke="#F1E4D4" stroke-width="0.25"/>
<path d="M72.2503 14.6536C72.4971 14.6181 72.7087 14.7068 72.9379 14.9197C73.1494 15.1326 73.3257 15.31 73.4668 15.4697C73.502 15.6293 73.502 15.8422 73.502 16.1083C73.502 16.3744 73.502 16.6405 73.4844 16.9066C73.4668 17.1727 73.4315 17.3856 73.3963 17.5276C73.4844 17.8291 73.502 18.1662 73.4315 18.5565C73.361 18.9468 73.3081 19.3371 73.2376 19.7451C73.1847 20.1177 73.1671 20.4725 73.1671 20.8273C73.1671 21.1821 73.2376 21.5192 73.3786 21.8207C73.3257 21.8917 73.2552 21.9804 73.1847 22.1046C73.1142 22.211 73.026 22.2997 72.9379 22.353C72.7087 22.5304 72.4795 22.5658 72.2326 22.4949C71.9858 22.4062 71.7742 22.2642 71.6156 22.0336C71.4393 21.8207 71.3511 21.5724 71.3511 21.324C71.3511 21.1643 71.3511 20.916 71.3687 20.5612C71.3687 20.2064 71.404 19.8161 71.4393 19.3903C71.4745 18.9645 71.5098 18.521 71.5274 18.0775C71.545 17.634 71.5803 17.2437 71.5979 16.8889C71.6156 16.5341 71.6156 16.2857 71.5979 16.1261C71.5979 16.0906 71.545 16.0728 71.4745 16.0728C71.404 16.0728 71.2982 16.0374 71.1748 16.0374C71.0514 16.0374 70.9456 16.0196 70.8398 16.0019C70.4519 16.1615 70.1346 16.3922 69.9054 16.6938C69.6586 16.9953 69.4999 17.2969 69.3765 17.5808C69.2707 17.8824 69.2002 18.113 69.2002 18.2727C69.2002 18.3614 69.2002 18.4323 69.2178 18.5033C69.2354 18.5742 69.2707 18.6275 69.3236 18.6807C69.5704 18.8936 69.7643 19.0355 69.923 19.0887C70.0817 19.1419 70.2051 19.1774 70.3285 19.1774C70.4519 19.1774 70.5577 19.1774 70.6635 19.2129C70.7693 19.2484 70.9103 19.2484 71.1043 19.2484C71.2982 19.2484 71.4922 19.2484 71.6685 19.2484C71.8448 19.2484 71.9682 19.2484 72.0387 19.2484C72.215 19.3193 72.2503 19.4613 72.1445 19.6741C72.0211 19.887 71.88 20.0822 71.7214 20.2596C71.4216 20.5612 71.0866 20.8982 70.734 21.253C70.3638 21.6256 70.0288 21.9804 69.6938 22.353C69.6057 22.4417 69.5351 22.5304 69.447 22.6191C69.3765 22.7078 69.2883 22.7965 69.2354 22.8852C69.1473 22.9739 69.0768 23.0626 68.9886 23.1513C68.9181 23.24 68.8476 23.3287 68.777 23.4174C68.6889 23.5238 68.6184 23.6125 68.5478 23.719C68.4773 23.8077 68.3539 23.8254 68.1776 23.7544C67.8602 23.7899 67.6134 23.6657 67.4371 23.4174C67.2608 23.169 67.1021 22.9029 66.9963 22.6368C67.1374 22.3707 67.3313 22.1046 67.5605 21.8207C67.8073 21.5369 68.0542 21.253 68.3186 20.9869C68.5831 20.7208 68.8123 20.4902 69.0239 20.2951C68.6713 20.1709 68.3892 20.029 68.16 19.8515C67.9308 19.6741 67.7897 19.3903 67.7192 19C67.6839 18.8049 67.6663 18.592 67.6839 18.3436C67.6839 18.0952 67.7368 17.8646 67.7897 17.634C67.8426 17.4034 67.9308 17.2082 68.0189 17.0308C68.0365 16.9953 68.0542 16.9776 68.0542 16.9776C68.0542 16.9776 68.0542 16.9599 68.0542 16.9244C68.1423 16.5873 68.2834 16.2857 68.4773 16.0019C68.6536 15.718 68.8828 15.4874 69.1473 15.2923C69.2531 15.2213 69.3588 15.1503 69.4646 15.0794C69.588 15.0084 69.6938 14.9552 69.8172 14.9197C69.9583 14.8665 70.1522 14.8133 70.3991 14.76C70.6459 14.7068 70.8751 14.6713 71.1219 14.6359C71.3687 14.6181 71.5627 14.6181 71.6861 14.6359C71.7742 14.6359 71.88 14.6713 71.9858 14.7068C72.0916 14.7423 72.1797 14.7423 72.2679 14.7068L72.2503 14.6536Z" fill="#F1E4D4" stroke="#F1E4D4" stroke-width="0.25"/>
</g>
<defs>
<clipPath id="clip0_151_198">
<rect width="73.7313" height="38" fill="white"/>
</clipPath>
</defs>
</svg>
