<?xml version="1.0" encoding="utf-8"?>
<!-- Generator: Adobe Illustrator 27.0.0, SVG Export Plug-In . SVG Version: 6.00 Build 0)  -->
<svg version="1.1" id="Layer_1" xmlns="http://www.w3.org/2000/svg" xmlns:xlink="http://www.w3.org/1999/xlink" x="0px" y="0px"
	 viewBox="0 0 512 512" style="enable-background:new 0 0 512 512;" xml:space="preserve">
<style type="text/css">
	.st0{fill:none;stroke:#635959;stroke-width:32;stroke-linecap:round;stroke-linejoin:round;}
</style>
<path class="st0" d="M380.9,57.4c-6-6-14.1-9.4-22.6-9.4H94.2C68.7,48,48,68.7,48,94.2c0,0,0,0,0,0v323.6
	c0,25.5,20.7,46.2,46.2,46.2c0,0,0,0,0,0h323.6c25.5-0.1,46.1-20.7,46.2-46.2V153.7c0-8.5-3.4-16.6-9.4-22.6L380.9,57.4z M256,416
	c-35.3,0-64-28.7-64-64s28.7-64,64-64s64,28.7,64,64c0,35.3-28.5,64-63.8,64C256.1,416,256.1,416,256,416z M304,192H112
	c-8.8,0-16-7.2-16-16v-64c0-8.8,7.2-16,16-16h192c8.8,0,16,7.2,16,16v64C320,184.8,312.8,192,304,192z"/>
</svg>
