<?xml version="1.0" encoding="utf-8"?>
<!-- Generator: Adobe Illustrator 27.0.0, SVG Export Plug-In . SVG Version: 6.00 Build 0)  -->
<svg version="1.1" id="Layer_1" xmlns="http://www.w3.org/2000/svg" xmlns:xlink="http://www.w3.org/1999/xlink" x="0px" y="0px"
	 viewBox="0 0 512 512" style="enable-background:new 0 0 512 512;" xml:space="preserve">
<style type="text/css">
	.st0{fill:none;stroke:#635959;stroke-width:32;stroke-linecap:round;stroke-linejoin:round;}
</style>
<path class="st0" d="M314.6,48c0,0-22.8,8-58.6,8s-58.6-8-58.6-8c-3.6,0-7.2,0.6-10.6,1.8L32,104l16.6,88l48.9,5.5
	c12.4,1.4,21.7,12.1,21.3,24.6L112,464h288l-6.8-241.9c-0.4-12.5,8.9-23.2,21.3-24.6l48.9-5.5l16.6-88L325.1,49.8
	C321.7,48.6,318.2,48,314.6,48z"/>
<path class="st0" d="M333.3,52.7c-11.4,42.7-55.2,68.1-97.9,56.7c-27.7-7.4-49.4-29-56.7-56.7"/>
</svg>
